if(_typeface_js&&_typeface_js.loadFace)_typeface_js.loadFace({"glyphs":{"S":{"x_min":-19.671875,"x_max":630.75,"ha":557,"o":"m 626 852 q 630 832 630 838 q 627 822 630 825 q 619 809 623 818 q 610 799 615 802 q 600 793 605 796 q 590 787 595 790 q 583 777 585 784 q 569 760 578 766 q 549 755 560 755 q 528 761 538 755 q 504 775 517 767 q 476 795 492 784 q 437 814 460 805 q 383 829 414 823 q 309 834 352 834 q 226 823 262 837 q 146 770 189 808 q 107 701 116 731 q 99 642 99 671 q 110 596 99 617 q 143 559 122 576 q 190 529 163 543 q 243 502 218 515 q 290 476 269 490 q 343 442 311 461 q 433 393 393 420 q 501 334 473 366 q 543 263 529 301 q 558 181 558 225 q 539 75 558 125 q 478 -11 519 25 q 376 -70 438 -48 q 231 -92 315 -92 q 129 -78 173 -92 q 55 -45 85 -64 q 7 -6 25 -25 q -14 23 -9 12 q -18 36 -17 31 q -19 44 -19 41 q -16 55 -19 52 q -6 70 -13 59 q 1 77 -3 75 q 11 82 6 80 q 21 88 16 84 q 29 98 25 91 q 61 120 40 120 q 83 112 72 120 q 108 93 94 105 q 139 68 122 82 q 180 42 156 54 q 235 23 204 31 q 307 15 265 15 q 363 29 334 16 q 414 59 392 41 q 444 101 435 77 q 454 154 454 126 q 441 215 454 189 q 404 261 427 241 q 357 295 381 280 q 304 322 333 309 q 230 351 274 335 q 141 388 187 367 q 75 424 105 404 q 24 470 46 444 q -8 526 3 495 q -19 598 -19 558 q -5 692 -19 646 q 35 780 9 739 q 99 855 62 821 q 180 915 136 890 q 274 955 224 941 q 378 969 324 969 q 482 954 437 969 q 557 920 526 940 q 604 882 588 901 q 626 852 621 862 "},"/":{"x_min":-35.265625,"x_max":486.96875,"ha":494,"o":"m 486 909 q 474 859 486 902 q 437 750 461 817 q 378 599 413 684 q 301 423 344 514 q 243 302 272 361 q 187 189 214 243 q 134 89 160 136 q 89 7 109 43 q 53 -53 69 -29 q 30 -86 38 -77 q 9 -104 21 -98 q -12 -111 -2 -111 q -28 -107 -21 -111 q -35 -96 -35 -103 q -28 -80 -35 -90 q 2 -25 -19 -66 q 55 79 25 15 q 120 227 85 143 q 191 412 155 311 q 246 571 223 500 q 287 698 269 641 q 315 798 304 754 q 334 878 326 843 q 347 920 340 907 q 365 933 354 933 q 373 932 368 933 q 379 932 377 932 q 384 933 383 932 q 387 936 385 935 q 393 940 389 938 q 402 941 396 941 q 413 938 408 941 q 419 931 417 935 q 424 925 422 928 q 430 922 427 922 q 439 925 435 922 q 446 933 442 929 q 453 941 449 937 q 463 944 457 944 q 482 933 477 944 q 486 909 486 923 "},"K":{"x_min":-19.671875,"x_max":965.109375,"ha":804,"o":"m 391 940 q 390 920 391 935 q 388 883 389 904 q 386 839 387 862 q 384 796 385 816 q 382 769 383 792 q 379 711 381 746 q 375 631 377 676 q 370 539 373 587 q 364 447 367 491 q 363 383 362 404 l 362 369 q 503 455 440 400 q 609 585 566 511 q 675 745 653 660 q 697 915 697 830 q 697 933 697 923 q 695 952 696 943 q 694 969 695 961 q 694 982 694 977 q 700 1006 695 994 q 715 1017 706 1017 q 733 1012 722 1017 q 749 1006 742 1008 q 761 1004 756 1005 q 772 1003 767 1003 q 781 1000 777 1002 q 790 993 787 997 q 795 985 792 990 q 799 975 797 980 q 807 966 802 971 q 817 960 811 961 q 829 957 824 959 q 838 953 834 956 q 843 943 843 950 q 839 895 843 931 q 824 809 835 859 q 791 698 812 758 q 734 577 769 638 q 651 459 699 517 q 545 361 603 401 q 507 340 526 349 q 472 322 489 330 q 517 290 493 310 q 559 243 541 270 q 604 173 577 217 q 661 73 631 129 q 712 -19 685 27 q 773 -107 739 -66 q 849 -180 807 -148 q 945 -226 891 -211 q 965 -240 965 -231 q 954 -249 965 -247 q 931 -251 944 -251 q 858 -246 897 -251 q 780 -226 820 -240 q 702 -188 741 -212 q 629 -127 663 -164 q 574 -51 596 -92 q 534 29 552 -11 q 502 109 517 69 q 468 177 486 148 q 425 227 451 206 q 362 265 400 248 q 360 264 361 265 l 351 205 q 339 142 349 179 q 313 63 329 105 q 263 -15 297 21 q 181 -80 230 -52 q 173 -83 178 -82 q 166 -85 169 -85 q 141 -79 141 -86 q 148 -65 141 -73 q 187 -14 172 -40 q 212 42 203 11 q 227 113 222 73 q 235 208 231 153 q 236 220 235 212 q 237 236 236 226 q 239 258 238 245 l 225 258 q 179 266 193 258 q 165 283 165 275 q 189 323 165 299 q 248 357 212 347 q 254 491 249 402 q 265 701 259 580 q 266 735 265 717 q 268 770 267 754 q 269 800 269 787 q 270 818 270 813 q 263 826 270 826 q 234 823 252 826 q 197 811 216 819 q 161 789 178 803 q 126 757 143 776 q 99 714 109 739 q 88 657 88 689 q 96 598 88 625 q 113 554 104 572 q 135 517 122 536 q 157 485 147 499 q 173 464 166 472 q 181 451 181 455 q 174 441 181 445 q 151 437 168 437 q 84 453 115 437 q 30 495 53 468 q -6 557 7 522 q -19 631 -19 592 q -1 727 -19 682 q 48 809 17 771 q 119 875 79 846 q 201 926 159 905 q 284 957 243 946 q 359 968 325 968 q 384 962 377 968 q 391 940 391 955 "},"7":{"x_min":-85.453125,"x_max":453.734375,"ha":414,"o":"m 452 937 q 414 785 438 853 q 352 657 391 716 q 283 546 313 598 q 226 441 253 494 q 194 368 209 408 q 168 286 180 328 q 146 204 155 244 q 131 131 137 164 q 121 74 124 98 q 118 42 118 50 q 115 -5 116 10 q 103 -22 115 -22 q 94 -20 100 -22 q 80 -14 88 -18 q 65 -8 71 -12 q 55 2 58 -3 l 42 1 q 31 2 34 1 q 27 5 29 4 q 23 9 25 7 q 12 12 20 10 q 2 14 6 12 q -6 21 -2 16 q -11 33 -9 25 q -13 54 -13 41 q -10 87 -13 64 q -1 142 -8 110 q 15 212 4 174 q 42 292 26 251 q 81 376 59 334 q 133 458 103 419 q 150 481 134 461 q 187 534 165 501 q 235 606 209 566 q 286 687 261 647 q 330 767 310 728 q 354 836 349 807 q 304 833 326 834 q 257 833 283 833 q 205 834 233 833 q 149 834 177 834 q 80 831 112 834 q 26 827 48 828 q -12 824 4 825 q -44 823 -29 823 q -77 827 -69 823 q -85 839 -85 832 q -84 849 -85 844 q -82 861 -82 855 q -80 873 -82 868 q -73 884 -77 878 q -67 894 -69 889 q -64 905 -64 899 l -64 911 q -56 937 -64 927 q -30 953 -48 947 q 14 962 -13 959 q 88 968 42 964 q 176 963 130 968 q 269 958 222 958 q 333 960 304 958 q 382 965 361 962 q 417 969 403 967 q 434 971 430 971 q 450 966 446 971 q 453 951 453 960 q 453 944 453 948 q 452 937 453 940 "},"d":{"x_min":-27.8125,"x_max":442.203125,"ha":418,"o":"m 432 257 q 439 254 436 257 q 442 245 442 251 q 440 236 442 242 q 406 141 422 183 q 374 67 389 99 q 335 10 356 32 q 277 -10 313 -10 q 249 -5 263 -10 q 223 12 235 0 q 202 42 212 25 q 188 94 193 59 q 165 55 177 73 q 137 20 153 37 q 100 -5 121 2 q 55 -12 79 -12 q 22 -1 37 -12 q -3 29 7 9 q -21 77 -14 49 q -27 139 -27 105 q -21 209 -27 174 q -3 275 -14 244 q 22 333 8 307 q 56 382 36 358 q 124 432 90 419 q 183 446 158 446 q 188 446 186 446 q 194 445 190 446 q 200 515 197 478 q 208 594 202 552 q 220 684 215 647 q 230 747 225 720 q 241 791 236 773 q 255 826 247 810 q 266 843 260 836 q 278 855 271 850 q 292 867 284 861 q 309 883 300 874 q 338 907 326 900 q 357 914 350 914 q 369 911 364 914 q 375 896 375 907 q 374 889 375 893 q 372 880 373 885 q 363 845 369 870 q 349 782 357 819 q 334 698 342 745 q 319 602 326 652 q 306 489 311 545 q 296 380 300 432 q 290 281 293 327 q 288 199 288 235 q 290 155 288 175 q 296 120 292 135 q 303 100 300 105 q 314 90 305 95 q 335 100 325 90 q 355 129 345 109 q 377 176 365 148 q 402 240 388 204 q 432 257 415 258 m 185 339 q 160 368 185 368 q 123 354 141 368 q 92 316 105 341 q 71 270 78 292 q 65 207 65 248 q 79 141 65 170 q 122 112 92 112 q 149 122 138 112 q 168 146 161 131 q 179 178 175 161 q 184 211 183 196 q 184 247 184 227 q 184 279 184 267 q 184 309 183 291 q 185 339 185 326 "},",":{"x_min":40.6875,"x_max":184.484375,"ha":271,"o":"m 181 69 q 184 59 184 63 q 181 43 184 51 q 175 25 179 35 q 157 -14 168 6 q 133 -55 145 -35 q 107 -92 120 -75 q 82 -119 94 -109 q 72 -125 76 -125 q 66 -117 66 -125 q 69 -107 66 -113 q 80 -71 77 -88 q 84 -39 84 -54 q 79 0 84 -18 q 67 30 73 17 q 54 51 60 44 q 46 61 48 59 q 40 75 40 69 q 46 88 40 82 q 59 100 49 91 q 80 120 69 109 q 100 138 90 130 q 111 149 109 147 q 117 154 115 153 q 124 156 120 156 q 134 149 130 156 q 143 134 136 146 q 158 109 150 122 q 173 84 166 95 q 181 69 180 72 "},"Y":{"x_min":-16.953125,"x_max":921.703125,"ha":877,"o":"m 838 27 q 828 -59 834 -24 q 859 -75 844 -71 q 882 -87 874 -80 q 895 -111 896 -97 q 892 -120 895 -116 q 881 -123 888 -123 q 860 -120 878 -123 q 814 -112 842 -116 q 766 -220 796 -170 q 694 -307 735 -270 q 601 -369 653 -344 q 491 -410 550 -395 q 418 -419 453 -419 q 350 -405 381 -419 q 296 -366 319 -390 q 261 -310 274 -341 q 248 -245 248 -279 q 269 -165 248 -204 q 341 -93 291 -126 q 468 -36 400 -54 q 595 -18 536 -18 q 715 -30 658 -18 q 719 -1 718 -11 q 722 29 721 9 q 727 74 724 48 q 730 118 729 96 q 737 172 732 140 q 688 97 711 124 q 631 50 664 70 q 564 20 597 30 q 502 10 531 10 q 415 30 456 10 q 342 89 373 50 q 292 187 310 128 q 274 321 274 245 q 281 421 274 365 q 299 533 289 476 q 316 633 308 590 q 324 716 324 676 q 318 781 324 759 q 299 823 311 803 q 268 851 286 842 q 229 859 250 859 q 183 848 206 859 q 139 811 160 836 q 108 756 118 787 q 97 674 97 726 q 110 599 98 626 q 137 546 122 572 q 166 506 152 520 q 185 487 180 491 q 193 475 193 480 q 189 467 193 470 q 174 465 185 465 q 151 468 168 465 q 114 479 135 471 q 69 502 92 487 q 27 542 46 518 q -4 601 8 567 q -16 684 -16 636 q 4 790 -16 739 q 62 879 26 841 q 146 941 99 918 q 246 964 193 964 q 321 951 285 964 q 383 910 356 937 q 426 841 410 883 q 442 742 442 799 q 435 642 442 693 q 421 537 429 591 q 406 427 413 483 q 400 311 400 370 q 406 242 400 270 q 432 191 413 215 q 474 158 451 168 q 526 147 497 147 q 593 157 560 147 q 653 192 626 168 q 702 256 681 217 q 735 353 723 295 q 739 383 736 359 q 746 428 742 408 q 754 497 749 449 q 766 593 760 544 q 777 688 771 642 q 789 772 784 735 q 798 832 794 809 q 804 858 802 855 q 813 864 807 861 q 826 867 817 866 q 846 869 834 869 q 851 869 849 869 q 857 868 854 868 q 865 874 861 868 q 874 887 868 880 q 887 900 879 894 q 908 906 895 906 q 921 890 921 906 l 921 881 q 915 844 919 873 q 907 770 912 815 q 896 668 902 726 q 884 546 890 611 q 871 413 877 482 q 858 276 864 344 q 847 145 852 208 q 838 27 842 81 m 412 -330 q 483 -318 446 -328 q 561 -281 521 -307 q 638 -209 602 -256 q 693 -105 675 -163 q 676 -105 685 -105 q 659 -105 668 -105 q 600 -107 631 -105 q 536 -117 569 -109 q 453 -141 490 -125 q 385 -182 417 -157 q 342 -230 354 -207 q 330 -277 330 -253 q 350 -316 330 -301 q 412 -330 370 -330 "},"E":{"x_min":-10.859375,"x_max":655.15625,"ha":627,"o":"m 382 966 q 498 949 449 966 q 579 911 546 933 q 629 866 611 889 q 651 832 647 844 q 654 821 654 826 q 655 813 655 817 q 651 802 655 805 q 642 790 647 798 q 633 780 638 783 q 622 775 628 777 q 611 770 616 773 q 602 760 606 767 q 572 740 592 740 q 550 747 560 740 q 525 765 539 754 q 494 789 512 776 q 450 813 476 802 q 387 831 423 824 q 302 838 352 838 q 207 821 248 838 q 130 772 166 805 q 91 712 107 744 q 76 651 76 680 q 93 587 76 616 q 140 547 108 567 q 209 510 172 527 q 282 477 246 492 q 340 453 318 463 q 366 435 360 444 q 373 417 373 426 q 369 395 373 406 q 365 373 365 384 q 366 362 365 367 q 368 353 368 358 q 361 334 368 342 q 344 320 355 326 q 320 309 334 314 q 293 301 307 305 q 243 283 274 295 q 184 252 212 271 q 135 204 155 233 q 115 135 115 176 q 125 92 115 108 q 156 59 134 77 q 207 31 177 41 q 273 21 237 21 q 417 60 351 24 q 526 158 484 96 q 551 196 536 172 q 581 256 567 219 q 590 265 585 264 q 600 267 594 267 q 612 253 609 257 q 615 245 615 250 q 609 222 615 240 q 592 182 602 205 q 565 131 581 158 q 533 79 550 104 q 476 14 508 44 q 406 -37 444 -15 q 326 -72 368 -60 q 236 -85 283 -85 q 151 -73 194 -85 q 74 -37 109 -61 q 17 22 39 -14 q -4 108 -4 59 q 14 193 -4 158 q 61 253 33 229 q 120 297 89 278 q 178 327 151 316 q 224 343 205 337 q 243 356 243 349 q 234 360 240 357 q 211 369 227 363 q 175 384 196 376 q 134 404 155 392 q 75 441 102 421 q 28 485 48 461 q 0 538 9 510 q -10 602 -10 567 q 3 695 -10 649 q 44 780 18 740 q 107 855 71 821 q 187 913 143 889 q 280 952 231 938 q 382 966 330 966 "},"y":{"x_min":1.359375,"x_max":469.328125,"ha":444,"o":"m 467 240 q 438 163 453 200 q 403 94 423 127 q 359 31 384 61 q 301 -33 334 1 q 295 -92 299 -59 q 288 -158 292 -126 q 260 -292 277 -240 q 224 -375 243 -344 q 186 -421 205 -406 q 151 -444 166 -436 q 94 -461 118 -461 q 46 -429 63 -461 q 29 -349 29 -398 q 45 -261 29 -302 q 85 -183 61 -219 q 141 -114 110 -146 q 204 -49 172 -83 q 206 -8 205 -31 q 208 29 207 13 q 212 99 211 60 q 215 176 213 138 q 184 84 199 116 q 152 31 170 52 q 118 2 134 11 q 82 -7 101 -7 q 54 0 68 -7 q 28 29 40 8 q 8 89 16 50 q 1 187 1 127 q 3 237 1 212 q 8 287 4 263 q 15 332 11 311 q 25 370 19 354 q 31 382 27 378 q 38 390 35 387 q 44 397 42 394 q 50 400 46 400 q 57 397 55 400 q 65 393 59 393 q 72 396 67 393 q 84 403 78 399 q 96 410 90 407 q 106 413 102 413 q 113 401 113 413 q 112 390 113 396 q 110 376 111 384 q 102 310 103 345 q 100 231 100 276 q 100 176 100 201 q 103 132 101 150 q 109 106 106 113 q 123 99 113 99 q 146 116 135 99 q 164 159 156 134 q 180 219 171 185 q 198 285 189 252 q 215 346 206 318 q 238 390 223 375 q 266 414 250 408 q 293 419 281 419 q 305 418 300 419 q 313 411 309 416 q 318 396 316 406 q 320 370 320 386 q 319 309 320 342 q 316 245 318 276 q 314 190 315 215 q 311 155 312 166 q 310 113 310 139 q 307 41 309 87 q 348 79 333 59 q 377 123 364 99 q 404 178 391 147 q 431 244 418 208 q 459 258 438 262 q 469 248 469 258 q 468 244 469 246 q 467 240 467 241 m 187 -187 q 191 -162 189 -175 q 194 -136 193 -149 q 158 -178 171 -158 q 134 -226 145 -197 q 116 -290 123 -256 q 111 -347 110 -324 q 114 -380 111 -370 q 122 -389 118 -389 q 138 -378 129 -389 q 151 -353 147 -366 q 162 -315 156 -341 q 173 -264 168 -290 q 182 -221 179 -238 q 187 -187 185 -203 "},"\"":{"x_min":29.84375,"x_max":277.390625,"ha":308,"o":"m 29 944 q 38 955 29 952 q 54 959 46 959 q 62 958 59 959 q 68 956 65 956 q 75 957 71 956 q 84 958 79 958 l 93 958 q 104 961 102 958 q 115 965 107 965 q 131 959 123 965 q 139 945 139 953 l 137 936 q 132 903 135 926 q 124 851 128 879 q 115 796 120 824 q 105 750 110 768 q 94 736 102 740 q 75 731 86 731 q 61 734 69 731 q 53 742 54 737 q 46 810 50 775 q 38 872 42 844 q 32 921 35 901 q 29 944 29 940 m 168 944 q 176 955 168 952 q 192 959 185 959 q 200 958 198 959 q 206 956 203 956 q 213 957 210 956 q 223 958 217 958 l 231 958 q 243 961 240 958 q 254 965 245 965 q 269 959 261 965 q 277 945 277 953 l 276 936 q 270 903 274 926 q 263 851 267 879 q 253 796 259 824 q 243 750 248 768 q 232 736 240 740 q 214 731 225 731 q 200 734 207 731 q 191 742 192 737 q 184 810 188 775 q 177 872 180 844 q 170 921 173 901 q 168 944 168 940 "},"g":{"x_min":-27.8125,"x_max":267.21875,"ha":238,"o":"m 215 439 q 240 433 229 439 q 256 417 250 427 q 264 396 262 408 q 267 370 267 383 q 260 327 267 351 q 241 283 254 304 q 210 248 229 262 q 169 234 192 234 q 154 245 154 234 q 157 263 154 252 q 163 288 160 273 q 163 308 164 300 q 160 324 162 316 q 152 337 157 331 q 139 342 147 342 q 108 327 122 342 q 85 294 94 311 q 70 248 75 276 q 65 198 65 221 q 69 156 65 172 q 82 129 74 139 q 101 115 90 119 q 123 111 111 111 q 167 123 150 111 q 200 165 185 135 q 225 207 215 194 q 240 220 234 220 q 248 208 247 220 q 248 180 248 196 q 249 136 248 168 q 248 73 250 104 q 244 9 246 43 q 240 -55 242 -24 q 237 -111 238 -86 q 234 -149 235 -136 q 227 -250 231 -208 q 221 -321 224 -292 q 214 -368 217 -350 q 208 -398 211 -386 q 198 -414 205 -408 q 183 -423 191 -420 q 167 -429 174 -427 q 155 -434 159 -431 q 127 -456 137 -448 q 109 -463 116 -463 q 99 -459 103 -463 q 94 -446 94 -455 q 95 -435 94 -442 q 98 -421 96 -427 q 99 -415 98 -419 q 101 -401 100 -411 q 105 -374 103 -391 q 112 -327 108 -356 q 122 -256 116 -298 q 134 -153 127 -213 q 139 -113 137 -139 q 145 -56 142 -87 q 150 -3 149 -25 q 153 48 151 18 q 151 52 153 52 q 146 47 149 52 q 137 34 143 42 q 126 22 132 27 q 111 10 121 17 q 84 -4 99 0 q 52 -9 68 -9 q 22 0 36 -9 q -3 28 7 10 q -21 69 -14 45 q -27 120 -27 92 q -9 230 -27 179 q 51 335 9 282 q 94 379 71 360 q 138 412 116 399 q 180 432 160 425 q 215 439 200 439 "},"e":{"x_min":-23.0625,"x_max":343.1875,"ha":319,"o":"m 333 257 q 340 254 337 257 q 343 246 343 251 q 341 236 343 240 q 319 182 330 207 q 297 137 307 157 q 273 95 284 115 q 241 53 259 73 q 204 17 224 33 q 160 -6 183 2 q 109 -14 136 -14 q 66 -8 90 -14 q 23 16 43 -1 q -9 67 3 35 q -23 149 -23 99 q -18 196 -23 172 q -6 241 -14 219 q 11 282 1 263 q 31 315 21 301 q 68 361 48 339 q 108 398 88 382 q 147 423 128 414 q 182 432 166 432 q 227 412 208 432 q 246 356 246 392 q 230 289 246 324 q 189 223 214 255 q 139 158 165 190 q 90 107 113 125 q 118 71 99 86 q 156 57 137 57 q 203 79 179 59 q 247 127 227 99 q 281 187 266 155 q 307 242 295 218 q 319 253 311 250 q 333 257 326 257 m 69 230 q 75 160 66 189 q 102 190 88 173 q 127 223 116 208 q 146 257 139 238 q 153 294 153 276 q 145 326 153 318 q 122 337 137 335 q 102 327 110 335 q 88 308 94 320 q 75 275 82 295 q 69 230 69 255 "},"J":{"x_min":-119.375,"x_max":510.03125,"ha":506,"o":"m 510 940 q 508 905 510 936 q 504 822 507 874 q 499 700 502 770 q 491 550 495 630 q 481 381 486 469 q 470 205 476 293 q 464 147 468 174 q 453 94 459 120 l 465 90 q 478 75 478 84 q 472 60 476 63 q 461 56 468 56 q 455 57 459 56 q 443 59 451 58 q 393 -45 425 4 q 318 -132 360 -94 q 227 -194 276 -169 q 124 -232 177 -219 q 50 -242 86 -242 q -16 -227 14 -242 q -70 -188 -48 -212 q -106 -132 -93 -164 q -119 -67 -119 -101 q -97 13 -119 -26 q -25 84 -75 53 q 95 130 36 116 q 210 144 155 144 q 279 140 246 144 q 344 130 313 135 q 351 166 348 146 q 355 208 354 186 q 360 312 357 245 q 368 464 363 369 q 383 701 374 558 q 385 734 383 716 q 387 769 386 752 q 389 798 388 786 q 390 816 390 811 q 387 824 390 822 q 381 826 384 826 q 298 795 334 819 q 229 736 262 771 q 177 658 197 700 q 156 557 156 616 q 166 479 156 513 q 183 419 177 445 q 209 374 190 393 q 246 342 228 356 q 277 321 263 329 q 297 307 291 312 q 301 299 301 303 q 293 288 301 293 q 269 284 285 284 q 220 288 248 284 q 164 302 193 292 q 108 330 135 312 q 59 375 80 347 q 24 440 37 402 q 11 529 11 478 q 34 647 11 590 q 97 754 57 704 q 184 843 137 805 q 283 909 231 881 q 386 952 335 937 q 478 968 436 968 q 503 962 496 968 q 510 940 510 955 m 59 -141 q 124 -137 98 -144 q 194 -103 151 -129 q 274 -30 237 -77 q 324 74 311 15 q 307 75 316 75 q 288 75 298 75 q 229 72 260 75 q 166 62 198 69 q 84 37 119 54 q 34 6 49 21 q 6 -30 19 -7 q -7 -77 -7 -53 q 10 -121 -7 -101 q 59 -141 28 -141 "},"|":{"x_min":109.875,"x_max":237.375,"ha":347,"o":"m 237 1026 q 236 993 237 1022 q 235 918 236 965 q 233 810 234 871 q 230 679 231 748 q 227 536 229 609 q 224 392 225 462 q 221 256 222 321 q 218 140 219 191 q 216 54 217 89 q 214 9 215 20 q 213 2 214 8 q 213 -11 213 -4 q 213 -26 213 -19 q 212 -33 212 -32 q 211 -48 212 -40 q 204 -63 209 -56 q 190 -76 199 -71 q 168 -84 182 -82 q 149 -91 156 -86 q 137 -102 142 -96 q 127 -111 132 -107 q 116 -115 123 -115 q 110 -109 111 -115 q 109 -90 109 -102 q 117 204 113 42 q 125 533 120 344 q 134 946 129 721 q 145 994 134 974 q 179 1020 155 1015 q 197 1030 190 1023 q 209 1044 204 1037 q 218 1056 214 1051 q 229 1062 223 1062 q 236 1052 236 1062 q 237 1026 237 1042 "},"^":{"x_min":-33.234375,"x_max":307.90625,"ha":254,"o":"m 301 626 q 307 613 307 617 q 303 604 307 607 q 293 602 299 602 q 286 603 290 602 q 265 614 280 604 q 229 639 250 623 q 183 679 208 655 q 134 731 159 702 q 99 694 120 714 q 58 658 79 675 q 20 627 37 640 q -8 609 2 614 q -21 606 -14 606 q -33 617 -33 606 q -29 628 -33 621 q -16 646 -25 632 q 4 678 -8 659 q 31 720 16 697 q 62 765 46 742 q 92 809 78 788 q 120 847 107 830 q 131 858 126 853 q 143 862 137 862 q 157 857 151 862 q 169 841 163 853 q 191 802 179 824 q 217 758 204 781 q 244 714 230 736 q 269 674 257 693 q 289 643 280 656 q 301 626 297 630 "},"q":{"x_min":-27.8125,"x_max":407.609375,"ha":384,"o":"m 405 236 q 358 116 378 160 q 316 52 337 72 q 335 18 327 40 q 347 -26 343 -2 q 355 -75 352 -50 q 359 -121 358 -101 q 360 -154 360 -141 q 360 -167 360 -167 q 350 -277 360 -228 q 324 -363 341 -326 q 284 -422 307 -399 q 237 -455 262 -446 q 229 -457 233 -457 q 221 -458 224 -458 q 186 -447 204 -458 q 154 -416 168 -437 q 130 -365 139 -396 q 120 -297 120 -335 q 123 -228 120 -267 q 130 -150 126 -190 q 139 -71 134 -110 q 147 -2 143 -33 q 154 48 151 28 q 158 70 157 67 q 156 73 158 73 q 146 61 155 73 q 124 32 138 48 q 93 4 111 17 q 55 -8 75 -8 q 25 0 40 -8 q -1 25 10 9 q -20 65 -12 42 q -27 118 -27 88 q -19 193 -27 159 q 1 255 -10 227 q 28 302 14 282 q 52 335 42 322 q 84 369 65 351 q 126 403 104 387 q 172 428 149 418 q 216 438 196 438 q 253 421 240 438 q 267 372 267 404 q 262 335 267 355 q 249 298 258 316 q 227 265 240 280 q 198 242 215 250 q 182 236 190 238 q 166 233 174 233 q 156 246 156 233 q 160 270 156 255 q 164 303 164 285 q 162 319 164 311 q 158 335 161 328 q 149 347 154 342 q 137 352 144 352 q 109 337 122 352 q 87 299 96 322 q 71 245 77 276 q 66 185 66 215 q 81 131 66 153 q 124 109 95 109 q 158 118 141 109 q 190 139 175 126 q 216 165 204 151 q 232 190 227 179 q 243 203 238 203 q 249 199 248 203 q 251 191 251 195 q 249 129 251 170 q 243 40 246 89 q 235 -62 239 -9 q 227 -162 231 -115 q 221 -244 223 -209 q 219 -293 219 -280 q 226 -357 219 -332 q 251 -383 233 -383 q 288 -344 278 -383 q 299 -228 299 -306 q 297 -157 299 -197 q 290 -80 295 -117 q 278 -14 286 -42 q 261 22 271 14 q 255 39 255 26 q 261 55 255 48 q 278 65 267 63 q 292 75 284 69 q 309 92 301 82 q 340 147 324 110 q 379 240 357 185 q 396 257 385 257 q 407 244 407 257 q 406 240 407 242 q 405 236 406 237 "},"b":{"x_min":0,"x_max":410.328125,"ha":387,"o":"m 400 257 q 407 254 404 257 q 410 245 410 251 q 407 233 410 240 q 361 172 392 192 q 293 152 330 152 l 292 152 q 264 89 280 119 q 227 37 248 60 q 179 2 206 15 q 120 -10 152 -10 q 71 1 92 -10 q 38 32 51 12 q 17 77 25 52 q 5 129 9 102 q 1 183 2 156 q 0 234 0 210 q 1 296 0 255 q 6 386 3 336 q 14 491 9 436 q 26 600 19 547 q 38 689 33 653 q 49 752 44 726 q 59 796 54 778 q 71 830 65 814 q 81 847 75 841 q 92 858 86 853 q 107 869 99 864 q 124 885 115 875 q 153 908 141 902 q 171 914 164 914 q 184 893 184 914 q 183 883 184 888 q 181 872 183 877 q 169 815 177 853 q 152 727 161 777 q 133 616 143 677 q 116 487 124 555 q 103 348 108 420 q 99 206 99 277 q 102 133 99 163 q 112 85 106 103 q 128 57 119 66 q 149 49 137 49 q 176 60 164 49 q 196 88 187 70 q 209 128 204 105 q 217 177 215 151 q 181 210 198 191 q 152 250 164 229 q 134 295 141 272 q 128 340 128 318 q 134 380 128 361 q 152 415 140 400 q 181 438 164 430 q 223 446 199 446 q 260 438 242 446 q 290 413 277 430 q 311 370 303 396 q 318 311 318 345 q 314 249 318 281 q 301 184 310 217 q 348 201 327 185 q 380 240 369 216 q 400 257 387 257 m 206 240 q 213 229 210 234 q 220 220 217 225 q 221 232 221 226 q 221 244 221 238 q 217 302 221 279 q 208 340 214 325 q 196 361 203 354 q 180 370 188 368 q 170 339 170 358 q 182 288 170 315 q 206 240 193 261 "},"D":{"x_min":-38.65625,"x_max":781.984375,"ha":770,"o":"m 781 455 q 765 285 781 362 q 721 148 749 208 q 657 44 693 88 q 582 -30 621 0 q 497 -69 544 -61 q 411 -70 450 -77 q 357 -60 383 -70 q 313 -32 332 -50 q 283 11 294 -14 q 271 71 271 37 q 275 90 271 84 q 285 99 278 95 q 297 85 293 99 q 339 42 312 63 q 409 16 366 21 q 505 35 461 16 q 579 119 550 54 q 625 279 609 184 q 641 496 641 374 q 624 642 641 575 q 570 757 607 709 q 478 833 534 806 q 344 860 422 860 q 247 848 296 860 q 158 811 198 836 q 93 746 118 786 q 63 655 68 707 q 74 596 63 624 q 118 544 84 568 q 167 511 151 520 q 189 495 184 501 q 196 478 196 486 q 191 469 196 473 q 174 460 187 465 q 168 460 171 460 q 160 461 164 460 q 102 475 147 463 q 27 506 58 486 q -21 561 -4 526 q -38 642 -38 595 q -27 710 -38 673 q 5 784 -16 747 q 61 854 27 820 q 138 914 94 888 q 236 956 181 940 q 356 971 290 971 q 519 944 451 971 q 634 872 587 916 q 711 771 682 828 q 755 658 739 715 q 776 547 771 600 q 781 455 781 494 m 284 841 q 303 865 291 856 q 331 874 316 874 q 345 871 337 874 q 354 860 354 868 q 353 850 354 855 q 351 838 352 846 q 322 675 339 781 q 299 512 305 570 q 287 401 292 455 q 281 303 283 348 q 277 222 278 257 q 276 166 276 187 q 276 59 276 99 q 275 -1 275 19 q 275 -8 275 -4 q 274 -17 275 -13 q 269 -25 272 -22 q 261 -29 266 -29 q 244 -25 252 -29 q 230 -17 237 -22 q 217 -10 223 -13 q 204 -6 210 -6 q 192 -11 197 -6 q 181 -16 187 -16 q 168 -12 172 -16 q 161 -2 163 -8 q 159 10 159 4 q 158 23 158 17 q 160 98 158 48 q 165 216 162 148 q 170 300 167 255 q 177 390 173 345 q 186 477 181 435 q 194 555 190 520 q 201 614 198 590 q 205 648 204 638 q 230 790 225 769 q 241 819 235 811 q 252 830 246 825 q 266 837 258 834 q 284 841 274 841 "},"z":{"x_min":-13.5625,"x_max":434.0625,"ha":402,"o":"m 432 227 q 398 139 413 174 q 366 76 382 103 q 335 31 351 50 q 300 -8 318 11 q 268 -38 286 -24 q 235 -65 250 -52 q 245 -112 243 -91 q 247 -158 247 -134 q 229 -271 246 -222 q 191 -356 213 -320 q 146 -412 169 -391 q 107 -442 122 -434 q 78 -456 92 -452 q 53 -459 65 -459 q 3 -428 19 -459 q -13 -349 -13 -398 q 0 -264 -13 -304 q 35 -190 13 -225 q 87 -126 58 -155 q 147 -70 116 -96 q 113 21 139 -18 q 105 37 105 33 q 114 51 105 46 q 136 63 123 56 q 165 80 149 69 q 193 109 180 90 q 208 139 202 124 q 217 170 214 155 q 221 200 220 185 q 222 227 222 215 q 217 289 222 266 q 202 331 212 313 q 179 359 192 350 q 151 368 166 368 q 126 359 137 368 q 105 336 115 350 q 93 305 96 321 q 91 266 91 288 q 93 233 91 249 q 99 204 95 217 q 109 183 103 191 q 124 174 115 175 q 143 160 143 171 q 139 149 143 155 q 127 138 134 143 q 108 130 119 133 q 84 126 97 126 q 56 132 71 126 q 28 150 41 137 q 6 182 14 162 q -2 232 -2 202 q 11 307 -2 271 q 50 371 25 343 q 108 416 75 399 q 179 433 141 433 q 223 427 199 433 q 268 402 247 421 q 303 350 288 383 q 317 261 317 316 q 300 176 317 222 q 250 89 283 130 q 233 73 243 82 q 215 60 223 65 q 197 49 206 55 q 179 40 187 43 q 200 13 193 29 q 215 -17 207 -2 q 245 4 231 -6 q 269 25 259 15 q 315 75 295 50 q 348 128 334 101 q 375 183 363 155 q 396 240 386 210 q 417 257 402 257 q 431 245 428 247 q 434 238 434 243 q 432 227 434 233 m 82 -400 q 104 -379 92 -400 q 126 -320 115 -359 q 144 -238 137 -280 q 152 -144 152 -195 q 117 -179 132 -160 q 90 -225 102 -197 q 73 -287 79 -252 q 67 -362 67 -321 q 72 -389 67 -379 q 82 -400 76 -400 "},"w":{"x_min":0,"x_max":607.6875,"ha":584,"o":"m 605 236 q 564 174 592 196 q 503 152 537 152 q 469 157 485 152 q 429 88 452 119 q 383 34 407 56 q 335 -1 359 11 q 291 -13 311 -13 q 276 -8 282 -13 q 262 6 269 -3 q 245 33 255 16 q 227 73 236 50 q 161 9 195 33 q 99 -13 127 -13 q 84 -8 90 -13 q 70 6 78 -3 q 50 41 62 18 q 26 97 37 63 q 7 176 15 130 q 0 281 0 222 q 3 327 0 309 q 10 358 6 346 q 18 378 14 370 q 27 389 23 385 q 35 396 31 393 q 41 399 38 399 q 48 395 45 399 q 55 392 52 392 q 63 395 58 392 q 74 402 69 398 q 86 410 80 406 q 95 413 92 413 q 102 409 99 413 q 105 396 105 406 q 103 379 105 387 q 100 360 102 371 q 97 333 99 349 q 96 290 96 316 q 109 159 96 215 q 147 66 123 103 q 179 98 162 77 q 205 146 196 118 q 195 207 199 174 q 191 281 191 240 q 194 327 191 309 q 202 358 198 346 q 210 378 206 370 q 219 389 215 385 q 227 396 223 393 q 233 399 230 399 q 240 395 237 399 q 247 392 244 392 q 255 395 250 392 q 266 402 261 398 q 278 410 272 406 q 287 413 284 413 q 294 409 290 413 q 297 396 297 406 q 295 379 297 387 q 292 360 294 371 q 289 333 290 349 q 288 290 288 316 q 301 154 288 215 q 340 62 315 94 q 359 81 352 73 q 377 106 366 88 q 394 143 387 123 q 407 196 402 163 q 383 226 395 208 q 361 265 371 243 q 348 302 352 283 q 344 339 344 322 q 350 379 344 360 q 365 412 356 398 q 389 434 375 426 q 418 442 402 442 q 480 409 455 442 q 505 315 505 375 q 498 249 505 281 q 484 194 492 217 q 507 191 496 191 q 546 200 532 189 q 572 240 561 212 q 596 257 578 257 q 603 254 600 257 q 607 246 607 251 q 605 236 607 242 m 384 339 q 392 295 384 317 q 413 252 400 274 q 415 277 415 266 q 415 304 415 287 q 411 361 415 338 q 400 383 407 383 q 392 379 395 383 q 386 368 388 375 q 384 354 385 361 q 384 339 384 346 "},"$":{"x_min":-34.59375,"x_max":394.71875,"ha":345,"o":"m 236 956 q 235 943 236 954 q 232 912 234 931 q 229 865 231 892 q 225 807 227 838 l 226 807 q 309 792 269 807 q 378 746 349 778 q 390 731 385 739 q 394 711 394 723 q 385 690 394 699 q 368 676 376 680 q 362 671 364 674 q 357 663 360 667 q 349 656 354 659 q 335 653 344 653 q 318 658 328 653 q 292 671 307 663 q 258 687 277 679 q 217 699 240 695 l 200 476 q 256 448 229 464 q 303 412 282 433 q 337 364 324 392 q 349 301 349 337 q 336 228 349 260 q 298 174 322 197 q 242 138 274 151 q 174 120 210 124 q 168 17 170 58 q 165 -33 165 -23 q 158 -65 164 -53 q 129 -80 151 -77 q 110 -88 118 -82 q 96 -94 101 -94 q 92 -83 92 -94 q 96 -27 93 -59 q 100 37 97 0 q 106 120 103 74 q 72 126 90 122 q 37 138 54 130 q 5 155 21 145 q -20 180 -9 166 q -30 197 -25 187 q -34 213 -34 206 q -25 234 -34 225 q -6 248 -16 244 q -2 253 -4 250 q 3 261 0 257 q 11 268 6 265 q 26 271 16 271 q 42 266 33 271 q 60 252 50 260 q 82 235 69 244 q 112 219 95 225 q 118 307 115 261 q 124 400 120 352 q 65 423 94 411 q 14 455 37 436 q -21 499 -7 474 q -34 562 -34 525 q -20 639 -34 602 q 18 707 -6 676 q 76 759 43 737 q 146 794 109 781 l 151 891 q 152 908 151 898 q 157 926 153 917 q 168 943 161 935 q 189 952 176 950 q 204 960 198 954 q 213 971 209 965 q 220 981 217 977 q 228 986 223 986 q 235 978 233 986 q 236 956 236 969 m 34 588 q 42 562 34 574 q 62 540 49 550 q 92 522 75 531 q 130 505 109 514 q 136 602 133 554 q 141 697 139 651 q 102 683 121 693 q 67 660 82 674 q 43 629 52 647 q 34 588 34 611 m 287 280 q 280 313 287 299 q 260 338 272 327 q 230 358 247 349 q 193 375 212 367 l 181 205 l 183 205 q 222 208 203 205 q 255 220 240 211 q 278 243 269 228 q 287 280 287 257 "},"™":{"x_min":40.6875,"x_max":851.171875,"ha":892,"o":"m 450 926 q 456 912 453 919 q 464 895 459 905 q 484 929 473 916 q 508 951 496 943 q 531 963 520 959 q 552 966 543 966 q 580 955 568 966 q 599 926 592 944 q 611 881 607 907 q 615 826 615 855 q 614 742 615 775 q 611 688 613 710 q 608 652 609 666 q 607 626 607 638 q 611 619 607 619 q 613 620 612 619 q 616 629 615 622 q 620 652 618 636 q 626 693 623 667 q 638 774 631 733 q 656 850 644 816 q 683 906 667 884 q 725 927 700 927 q 754 923 741 927 q 775 909 767 919 q 788 883 784 900 q 792 842 792 866 q 788 757 792 799 q 784 676 784 716 q 785 608 784 638 q 792 554 786 578 q 810 512 798 531 q 843 477 822 493 q 848 472 846 474 q 851 466 851 469 q 844 459 851 459 q 838 459 841 459 q 834 461 836 460 q 784 484 807 470 q 744 522 761 499 q 717 579 727 545 q 707 659 707 613 q 708 710 707 690 q 711 746 710 731 q 714 773 713 760 q 716 802 716 786 q 713 830 716 819 q 702 840 711 840 q 693 837 697 840 q 688 829 690 835 q 682 811 685 822 q 677 782 680 800 q 670 738 674 766 q 662 682 666 711 q 654 629 658 654 q 648 594 651 604 q 625 548 640 562 q 592 533 610 533 q 568 539 577 533 q 552 554 558 545 q 543 573 545 563 q 541 593 541 583 q 542 710 541 653 q 544 825 544 767 q 539 885 544 868 q 521 902 535 902 q 507 892 513 902 q 498 866 501 883 q 492 827 494 849 q 489 780 490 805 q 488 772 489 776 q 488 764 488 768 q 486 713 486 739 q 485 664 486 688 q 482 620 484 640 q 478 584 480 599 q 470 525 474 542 q 460 515 467 518 q 443 511 453 512 q 425 510 434 510 q 413 507 417 510 q 402 505 406 505 q 390 520 390 505 q 395 548 392 525 q 403 601 399 571 q 409 662 406 631 q 413 716 413 693 q 412 779 413 752 q 410 828 411 807 q 407 868 409 850 q 404 904 406 886 q 406 939 402 927 q 419 951 411 950 q 436 946 427 952 q 450 926 444 939 m 267 882 q 265 836 267 868 q 260 758 263 803 q 256 657 258 712 q 253 540 253 601 q 245 524 253 534 q 223 514 237 514 q 213 513 217 514 q 206 510 210 512 q 198 506 202 507 q 189 505 194 505 q 181 512 181 505 q 181 524 181 519 q 182 563 181 535 q 183 632 182 591 q 188 728 185 674 q 196 847 191 782 q 206 866 198 860 q 226 875 215 872 q 239 883 233 876 q 250 893 244 889 q 190 890 219 893 q 139 879 162 887 q 103 857 116 871 q 89 819 89 843 q 96 782 89 795 q 112 763 103 769 q 128 752 121 756 q 135 744 135 749 q 130 736 135 738 q 117 735 124 735 q 97 738 109 735 q 71 751 84 741 q 49 777 59 760 q 40 820 40 794 q 53 869 40 845 q 88 912 66 893 q 140 944 110 931 q 203 961 169 957 q 264 969 235 967 q 320 971 294 971 q 357 970 343 971 q 377 966 370 968 q 386 960 384 963 q 387 955 387 957 q 386 952 387 954 q 385 947 385 950 q 378 938 383 941 q 372 928 373 935 q 369 919 371 925 q 365 907 368 913 q 358 897 362 902 q 350 893 354 893 q 330 893 343 893 q 295 894 317 894 l 265 894 q 267 882 267 891 "},"\\":{"x_min":6.78125,"x_max":529.015625,"ha":494,"o":"m 6 909 q 11 933 6 923 q 30 944 16 944 q 40 941 35 944 q 47 933 44 937 q 54 925 50 929 q 63 922 58 922 q 68 925 66 922 q 73 931 71 928 q 80 938 76 935 q 91 941 84 941 q 100 940 97 941 q 105 936 103 938 q 109 933 107 935 q 113 932 110 932 q 120 932 116 932 q 128 933 124 933 q 146 920 139 933 q 159 878 153 907 q 177 798 166 843 q 206 698 189 754 q 247 571 223 641 q 301 412 270 500 q 372 227 337 311 q 438 79 408 143 q 490 -25 468 15 q 522 -80 512 -66 q 529 -96 529 -90 q 522 -107 529 -103 q 505 -111 515 -111 q 484 -104 495 -111 q 463 -86 472 -98 q 439 -53 455 -77 q 404 7 424 -29 q 358 89 383 43 q 306 189 333 136 q 250 302 279 243 q 191 423 221 361 q 114 599 149 514 q 56 750 80 684 q 19 859 32 817 q 6 909 6 902 "},"~":{"x_min":-45.4375,"x_max":326.90625,"ha":284,"o":"m 326 514 q 318 484 326 504 q 294 444 309 464 q 255 409 278 424 q 202 395 231 395 q 160 403 180 395 q 119 422 139 412 q 77 441 99 432 q 33 449 56 449 q -1 440 12 449 q -24 411 -14 430 q -36 399 -30 399 q -45 412 -45 399 q -44 421 -45 416 q -34 448 -42 429 q -13 486 -27 467 q 22 521 0 506 q 73 536 43 536 q 116 527 96 536 q 155 508 136 518 q 194 489 174 497 q 236 480 214 480 q 274 490 258 480 q 304 522 290 501 q 317 532 311 532 q 324 527 322 532 q 326 514 326 522 "},"-":{"x_min":67.828125,"x_max":335.046875,"ha":403,"o":"m 316 304 q 329 300 324 304 q 335 291 335 297 q 334 287 335 288 q 332 282 333 284 q 332 276 332 280 q 333 265 332 271 q 334 253 334 259 q 333 245 334 248 q 330 235 331 243 q 329 225 329 231 q 329 219 329 220 q 326 207 329 213 q 311 195 322 200 q 278 187 300 190 q 220 184 257 184 q 163 187 189 184 q 116 193 136 189 q 85 200 96 196 q 71 206 73 204 q 67 226 67 209 q 69 249 67 233 q 75 278 71 264 q 83 290 78 286 q 99 295 87 295 q 128 291 101 295 q 196 288 154 288 q 255 291 233 288 q 289 296 276 293 q 307 302 301 299 q 316 304 312 304 "},"Q":{"x_min":-21.703125,"x_max":730.453125,"ha":690,"o":"m 107 441 q 129 253 107 333 q 178 124 151 174 q 242 49 206 75 q 326 21 278 24 q 257 107 286 65 q 201 218 227 148 q 162 361 174 287 q 149 522 149 436 q 162 654 149 596 q 196 758 174 713 q 245 835 217 803 q 301 889 272 868 q 372 920 330 910 q 448 928 414 930 q 509 917 476 928 q 572 882 541 906 q 632 819 604 857 q 682 727 661 781 q 717 603 704 674 q 730 444 730 533 q 712 283 730 357 q 664 148 695 208 q 592 42 634 88 q 510 -31 551 -4 q 595 -127 560 -91 q 675 -205 631 -163 q 687 -225 687 -213 q 682 -236 687 -231 q 670 -240 677 -240 q 656 -238 661 -240 q 649 -235 651 -236 q 601 -211 630 -225 q 552 -185 572 -196 q 492 -143 533 -173 q 412 -74 452 -113 q 373 -82 392 -80 q 334 -85 354 -85 q 258 -73 298 -85 q 178 -38 217 -62 q 102 23 138 -14 q 38 113 66 61 q -5 233 10 165 q -21 385 -21 301 q -6 553 -21 470 q 41 712 8 636 q 125 853 73 788 q 256 954 176 918 q 269 958 263 958 q 280 948 280 958 q 276 937 280 942 q 258 918 271 933 q 229 879 245 903 q 192 817 214 855 q 150 728 170 779 q 118 604 129 676 q 107 441 107 532 m 428 860 q 365 848 398 862 q 313 807 333 835 q 280 730 293 778 q 267 610 267 682 q 272 511 267 563 q 287 405 278 459 q 312 299 297 352 q 360 192 328 246 q 408 112 388 142 q 447 48 427 82 q 500 105 474 69 q 545 193 526 141 q 577 318 565 246 q 590 482 590 389 q 572 665 590 592 q 529 780 554 737 q 480 841 503 824 q 428 860 457 857 "},"M":{"x_min":-35.265625,"x_max":1016.65625,"ha":869,"o":"m 739 784 q 801 772 777 784 q 839 738 825 760 q 859 686 853 716 q 864 619 864 655 q 861 554 864 588 q 855 483 858 520 q 840 318 846 399 q 834 158 834 236 q 843 1 834 71 q 871 -126 851 -69 q 922 -228 890 -183 q 1001 -309 954 -273 q 1012 -319 1008 -316 q 1016 -328 1016 -323 q 1004 -337 1016 -337 q 989 -335 997 -337 q 892 -283 942 -317 q 800 -195 842 -249 q 732 -63 759 -141 q 706 120 706 14 q 710 262 706 191 q 721 395 715 333 q 728 504 727 458 q 729 587 729 550 q 726 619 729 607 q 717 636 722 630 q 706 643 712 642 q 693 644 699 644 q 678 636 685 644 q 667 615 671 627 q 658 584 663 602 q 647 524 654 565 q 637 464 642 499 q 624 389 631 429 q 610 307 617 349 q 596 228 602 265 q 584 161 590 191 q 574 113 578 130 q 525 9 557 42 q 452 -23 493 -23 q 405 -9 422 -23 q 379 24 387 4 q 368 68 370 44 q 366 113 366 92 q 369 381 366 250 q 373 643 373 512 q 370 722 373 692 q 360 780 368 753 q 335 821 351 807 q 295 836 320 836 q 254 808 271 836 q 229 740 236 781 q 215 635 221 699 q 207 497 209 571 q 205 394 206 446 q 197 292 204 341 q 187 199 190 243 q 179 119 183 154 q 167 18 174 58 q 156 -41 161 -21 q 142 -65 152 -59 q 119 -74 132 -72 q 94 -76 107 -76 q 71 -80 81 -76 q 48 -85 60 -85 q 28 -80 36 -85 q 21 -61 21 -74 q 21 -52 21 -56 q 27 -17 23 -44 q 37 47 31 9 q 49 132 43 86 q 60 225 55 178 q 68 316 65 271 q 71 394 71 360 q 68 493 71 450 q 58 570 64 536 q 43 630 52 603 q 25 681 35 657 q 6 729 16 705 q -12 781 -3 753 q -30 854 -25 818 q -35 923 -35 889 q -30 986 -35 956 q -19 1037 -26 1015 q -4 1071 -12 1059 q 11 1084 4 1084 q 25 1073 20 1084 q 29 1047 29 1062 q 29 1034 29 1041 q 29 1016 29 1026 q 31 975 29 999 q 40 920 33 951 q 61 860 48 888 q 98 800 75 832 q 118 759 109 779 q 134 720 126 739 q 160 817 146 781 q 197 883 174 852 q 243 933 220 914 q 288 960 266 951 q 328 970 311 969 q 355 970 345 970 q 413 952 383 970 q 458 907 443 935 q 481 843 472 880 q 496 764 491 806 q 502 675 501 721 q 504 585 504 630 q 501 424 504 492 q 496 325 498 357 q 490 257 493 293 q 487 192 487 221 q 489 182 487 185 q 495 180 491 180 q 501 185 499 181 q 510 210 503 189 q 522 270 516 230 q 534 343 529 310 q 553 453 545 399 q 570 557 560 507 q 595 648 579 606 q 630 719 611 689 q 675 767 649 750 q 739 784 701 784 "},"C":{"x_min":-25.765625,"x_max":655.15625,"ha":631,"o":"m 655 739 q 646 666 655 702 q 617 596 636 630 q 573 539 598 563 q 520 500 548 516 q 467 476 493 484 q 421 468 441 468 q 393 474 403 468 q 383 487 383 479 q 400 503 383 497 q 433 522 411 508 q 475 563 454 537 q 513 613 497 589 q 529 691 529 638 q 512 743 526 710 q 474 797 497 776 q 422 827 451 817 q 364 836 394 836 q 252 799 302 836 q 168 697 203 762 q 117 574 134 632 q 101 416 101 516 q 112 283 101 342 q 142 184 123 223 q 184 119 161 145 q 236 71 208 92 q 295 42 265 51 q 354 32 325 32 q 443 54 405 32 q 506 103 481 76 q 552 169 531 130 q 593 255 572 208 q 604 267 596 263 q 628 269 613 270 q 653 246 650 265 q 648 223 653 241 q 631 181 642 206 q 607 129 621 157 q 575 75 592 101 q 458 -42 524 -2 q 303 -82 392 -82 q 161 -46 222 -82 q 57 48 99 -11 q -4 189 16 109 q -25 358 -25 269 q -4 551 -25 464 q 50 704 17 638 q 121 817 83 771 q 193 890 160 864 q 236 919 211 904 q 289 946 260 934 q 351 966 318 958 q 419 973 384 973 q 517 955 473 973 q 591 904 560 936 q 638 830 621 872 q 655 739 655 787 "},"[":{"x_min":-8.8125,"x_max":303.171875,"ha":269,"o":"m 303 863 q 302 852 303 857 q 297 842 301 846 q 275 837 295 840 q 225 831 255 834 q 162 827 196 829 q 100 826 128 826 l 92 826 l 67 -60 q 102 -62 85 -61 q 133 -63 118 -63 q 197 -60 172 -63 q 237 -54 221 -57 q 262 -48 253 -50 q 279 -45 271 -45 q 284 -46 282 -45 q 286 -55 286 -48 q 284 -67 286 -59 q 278 -85 283 -74 q 280 -96 280 -91 q 280 -104 280 -101 q 281 -110 280 -107 q 280 -124 281 -116 q 272 -139 279 -132 q 255 -149 268 -144 q 222 -158 241 -153 q 180 -164 203 -162 q 137 -167 158 -167 q 68 -158 98 -167 q 23 -141 37 -149 q -8 -76 -8 -126 q -8 -36 -8 -71 q -8 52 -8 -2 q -8 177 -8 107 q -8 324 -8 247 q -8 481 -8 402 q -8 632 -8 560 q -8 735 -8 687 q -8 822 -8 784 q -8 887 -8 861 q -8 925 -8 914 q -4 947 -8 937 q 15 957 0 957 q 40 959 21 957 q 85 962 59 960 q 140 967 111 964 q 197 972 170 969 q 245 977 224 975 q 274 982 265 980 q 288 985 282 985 q 299 981 297 985 q 302 971 302 976 q 300 956 302 963 q 298 940 298 949 q 299 929 298 934 q 301 918 301 924 q 298 905 301 910 q 296 900 296 900 q 300 882 297 892 q 303 863 303 872 "},"L":{"x_min":-57.09375,"x_max":700.609375,"ha":648,"o":"m 344 833 q 311 828 325 833 q 280 811 297 822 q 252 778 263 799 q 242 722 242 757 q 247 641 242 686 q 267 540 252 596 q 293 417 281 483 q 305 277 305 351 q 290 150 305 206 q 250 54 275 94 q 311 37 280 46 q 381 23 343 29 q 425 17 402 19 q 471 16 448 16 q 541 22 510 16 q 601 44 573 27 q 643 87 629 60 q 657 154 657 114 q 656 167 657 160 q 655 181 655 173 q 666 197 655 197 q 681 193 677 198 q 690 179 685 188 q 697 154 694 169 q 700 117 700 139 q 696 78 700 100 q 682 33 692 56 q 656 -12 672 10 q 614 -53 639 -35 q 559 -80 589 -71 q 484 -90 530 -90 q 404 -83 445 -90 q 323 -67 364 -77 q 245 -44 283 -56 q 176 -18 208 -31 q 109 -51 145 -38 q 37 -63 73 -63 q -32 -44 -8 -63 q -56 5 -56 -25 q -28 67 -59 42 q 71 90 2 93 q 109 85 92 90 q 141 78 126 80 q 169 174 160 121 q 179 286 179 228 q 172 376 179 331 q 158 464 166 420 q 144 552 151 507 q 138 641 138 596 q 155 771 138 712 q 206 874 173 831 q 286 942 240 917 q 392 966 333 966 q 490 949 446 966 q 567 910 535 933 q 619 866 600 888 q 642 832 638 843 q 644 820 643 825 q 646 813 646 816 q 642 801 646 805 q 634 790 638 797 q 624 780 630 783 q 613 775 619 777 q 603 770 608 773 q 595 760 598 767 q 582 745 590 750 q 564 740 574 740 q 545 745 553 740 q 523 763 540 748 q 479 792 505 777 q 418 820 453 808 q 344 833 383 833 m 49 -15 q 88 -3 71 -13 q 115 15 105 6 q 74 34 84 31 q 50 36 64 36 q 27 32 35 36 q 16 25 19 29 q 11 16 12 22 q 10 7 10 10 q 20 -11 10 -4 q 49 -15 29 -18 "},"!":{"x_min":61.046875,"x_max":277.390625,"ha":353,"o":"m 276 937 q 274 864 276 908 q 267 766 272 819 q 255 650 263 712 q 237 523 248 588 q 215 403 225 451 q 199 324 206 355 q 190 284 193 299 q 183 262 186 269 q 176 252 179 255 q 167 250 172 250 q 159 250 162 250 q 151 252 155 251 q 126 259 134 253 q 119 279 119 264 q 121 318 119 286 q 125 397 122 349 q 129 501 127 444 q 130 615 130 558 q 130 710 130 671 q 130 778 130 749 q 128 830 129 807 q 126 877 128 853 q 125 884 126 878 q 124 894 124 889 q 123 905 124 900 q 122 911 122 910 q 132 934 122 927 q 170 942 143 942 q 179 941 178 942 q 182 940 180 940 q 195 943 189 940 q 206 950 201 946 q 217 956 212 953 q 227 959 222 959 q 247 966 236 959 q 267 972 257 972 q 275 969 273 972 q 277 961 277 966 q 276 951 277 957 q 276 937 276 945 m 204 80 q 205 73 205 78 q 202 63 205 67 q 191 52 199 58 q 176 41 185 48 q 157 27 166 34 q 141 14 148 20 q 132 8 134 8 q 126 3 130 6 q 117 1 122 1 q 105 8 111 1 q 96 22 101 12 q 84 42 90 31 q 73 62 78 52 q 66 76 68 72 q 62 84 64 80 q 61 90 61 87 q 67 103 61 96 l 132 165 q 138 169 134 167 q 145 171 142 171 q 155 165 151 171 q 164 148 157 160 q 180 122 172 135 q 195 96 188 108 q 204 80 202 84 "}," ":{"x_min":0,"x_max":0,"ha":250},"{":{"x_min":-27.125,"x_max":271.96875,"ha":133,"o":"m 271 884 q 257 876 271 882 q 220 859 242 870 q 173 831 198 848 q 125 790 147 814 q 89 733 103 765 q 74 657 74 700 q 85 592 74 627 q 123 517 96 557 q 139 491 133 501 q 144 472 144 480 q 134 453 144 461 q 117 444 128 450 q 91 431 107 438 q 50 412 75 423 q 83 397 69 405 q 108 382 98 389 q 128 364 120 374 q 157 285 157 330 q 148 233 157 257 q 128 185 139 208 q 109 138 118 162 q 100 87 100 113 q 110 25 100 56 q 139 -36 120 -6 q 187 -90 158 -65 q 252 -133 215 -115 q 261 -146 261 -138 q 257 -155 261 -151 q 240 -158 252 -158 q 206 -154 229 -158 q 157 -139 184 -149 q 102 -112 130 -129 q 51 -69 74 -94 q 13 -8 28 -43 q -1 73 -1 27 q 5 125 -1 102 q 22 167 12 148 q 44 204 32 187 q 65 238 55 221 q 82 274 75 255 q 89 315 89 293 q 81 350 89 337 q 59 370 72 363 q 31 379 46 377 q 3 384 16 382 q -18 389 -10 386 q -27 402 -27 393 q -17 416 -27 408 q 7 434 -7 425 q 38 454 21 444 q 69 474 55 465 q 77 485 77 480 q 66 501 77 491 q 38 531 56 512 q -4 606 10 562 q -20 701 -20 651 q 0 810 -20 764 q 50 890 19 856 q 120 947 82 924 q 193 988 158 971 q 217 994 206 994 q 231 987 225 994 q 242 970 238 980 q 250 953 247 961 q 253 942 252 945 l 255 936 q 252 928 255 933 q 249 918 249 923 q 256 910 249 912 q 265 905 262 908 q 270 897 269 901 q 271 890 271 893 q 271 884 271 886 "},"X":{"x_min":20.34375,"x_max":1087.1875,"ha":1009,"o":"m 1082 -199 q 1087 -224 1087 -215 q 1074 -234 1087 -234 q 1060 -231 1067 -234 q 919 -159 982 -204 q 803 -49 856 -113 q 709 84 750 14 q 625 254 668 155 q 521 128 569 186 q 429 26 473 69 q 349 -46 385 -17 q 301 -86 314 -75 q 271 -93 289 -94 q 244 -91 254 -91 q 225 -86 233 -91 q 217 -73 217 -82 q 227 -54 217 -65 q 272 -7 238 -42 q 354 80 306 26 q 460 207 402 134 q 578 368 518 280 q 535 480 556 422 q 490 600 513 537 q 441 725 461 676 q 404 803 420 775 q 359 847 387 830 q 297 864 330 864 q 229 852 258 864 q 179 815 200 841 q 147 757 158 790 q 136 696 136 725 q 145 614 136 650 q 168 549 154 577 q 199 501 182 521 q 231 467 215 481 q 260 445 247 453 q 278 433 272 437 q 290 416 290 423 q 278 408 290 408 q 176 426 223 408 q 94 478 128 444 q 40 557 59 511 q 20 660 20 604 q 42 790 20 733 q 103 886 64 847 q 193 945 141 925 q 305 965 246 965 q 386 956 349 965 q 455 922 423 946 q 517 855 488 897 q 573 747 546 813 q 611 654 592 701 q 672 527 630 607 q 751 667 729 626 q 795 754 773 708 q 834 842 817 801 q 865 915 851 882 q 885 952 876 940 q 904 963 894 963 q 914 961 908 963 q 923 959 920 959 q 928 961 926 959 q 939 963 929 963 q 952 959 948 963 q 959 951 956 955 q 963 942 961 946 q 968 938 965 938 q 976 941 972 938 q 984 946 980 943 q 992 952 988 949 q 1001 954 996 954 q 1017 947 1011 954 q 1023 928 1023 940 q 1021 915 1023 921 q 1009 889 1020 913 q 979 825 999 864 q 932 733 960 785 q 872 624 904 681 q 804 504 840 567 q 736 389 767 441 q 770 290 748 345 q 811 188 792 235 q 863 77 834 128 q 922 -14 892 27 q 980 -87 951 -55 q 1031 -143 1008 -120 q 1066 -181 1054 -166 q 1082 -199 1077 -196 "},"P":{"x_min":-23.0625,"x_max":788.765625,"ha":763,"o":"m 296 853 q 316 865 303 856 q 343 874 328 874 q 358 871 349 874 q 366 860 366 868 q 365 850 366 855 q 363 838 364 846 q 336 675 351 781 q 314 512 321 570 q 303 401 307 455 q 296 303 299 348 q 293 222 294 257 q 292 166 292 187 q 291 97 292 132 q 291 31 291 62 q 291 -23 291 0 q 290 -56 290 -46 q 290 -64 290 -59 q 289 -73 290 -69 q 285 -81 288 -78 q 276 -84 282 -84 q 260 -81 267 -84 q 246 -73 252 -78 q 232 -65 239 -69 q 220 -62 226 -62 q 208 -67 212 -62 q 196 -71 203 -71 q 183 -67 188 -71 q 177 -57 179 -63 q 174 -44 174 -51 q 174 -32 174 -37 q 174 8 174 -19 q 176 70 174 35 q 178 144 177 105 q 181 216 179 182 q 186 300 183 255 q 193 390 189 345 q 201 477 197 435 q 209 555 206 520 q 216 614 213 590 q 232 739 219 638 q 241 791 237 769 q 251 837 246 813 q 263 848 256 843 q 276 853 268 852 q 296 853 284 855 m 381 850 q 277 841 327 849 q 186 809 227 832 q 118 749 145 786 q 84 653 90 711 q 91 596 84 623 q 111 547 99 569 q 137 511 124 525 q 156 490 150 497 q 162 480 160 486 q 164 465 165 475 q 158 456 164 459 q 139 453 151 453 q 93 464 123 453 q 39 498 64 475 q -4 557 13 521 q -23 642 -23 593 q -9 714 -23 676 q 30 787 4 751 q 94 856 56 824 q 182 913 132 889 q 290 952 231 937 q 419 967 349 967 q 580 937 511 967 q 695 859 649 908 q 765 746 741 810 q 788 613 788 682 q 759 460 788 529 q 676 343 731 392 q 544 269 622 295 q 336 244 466 243 q 320 245 328 244 q 304 249 311 247 q 293 254 297 250 q 288 266 288 258 q 291 283 288 274 q 303 301 295 293 q 484 336 425 314 q 578 390 543 359 q 630 471 613 422 q 647 579 647 520 q 626 707 647 654 q 569 791 605 760 q 483 836 532 822 q 381 850 435 850 "},"%":{"x_min":44.078125,"x_max":1047.859375,"ha":1092,"o":"m 843 918 q 830 888 842 912 q 799 826 819 864 q 755 739 780 788 q 700 640 729 691 q 641 536 672 588 q 583 437 611 483 q 475 263 522 337 q 394 135 429 188 q 334 48 359 82 q 288 0 308 15 q 265 -13 277 -9 q 243 -16 254 -16 q 224 -13 231 -16 q 217 0 217 -9 q 222 14 217 6 q 232 28 227 22 q 269 82 244 44 q 329 176 295 120 q 404 301 363 231 q 490 450 445 371 q 566 594 533 525 q 626 722 600 663 q 672 832 652 782 q 708 918 692 881 q 729 955 720 944 q 747 966 737 967 q 755 964 752 966 q 761 961 758 961 q 767 964 765 961 q 777 967 769 967 q 789 963 786 967 q 793 954 792 959 q 795 946 794 950 q 798 942 795 942 q 804 944 801 942 q 809 949 806 946 q 814 955 811 952 q 822 957 817 957 q 839 950 834 957 q 845 932 845 943 q 843 918 845 925 m 486 677 q 467 558 486 612 q 416 465 448 504 q 342 406 383 427 q 255 385 300 385 q 182 401 219 385 q 114 451 145 417 q 63 533 83 484 q 44 650 44 583 q 52 746 44 700 q 81 831 61 791 q 133 904 101 870 q 210 962 164 937 q 221 966 217 965 q 229 967 225 967 q 240 963 237 967 q 242 955 242 959 q 236 939 242 945 q 229 931 230 933 q 212 916 225 927 q 183 876 198 904 q 157 801 168 849 q 145 677 145 753 q 177 502 145 558 q 265 447 208 447 q 303 459 282 447 q 342 499 324 470 q 372 575 360 527 q 384 696 384 623 q 373 795 384 760 q 348 847 362 830 q 319 866 333 863 q 298 869 305 869 q 275 861 287 869 q 246 830 263 853 q 239 821 242 825 q 228 817 236 817 q 217 825 222 817 q 212 846 212 832 q 222 882 212 865 q 245 910 231 898 q 276 929 259 922 q 308 935 293 935 q 366 924 335 935 q 424 882 397 912 q 468 803 451 853 q 486 677 486 753 m 1047 271 q 1028 152 1047 206 q 977 59 1009 98 q 903 0 945 21 q 816 -21 862 -21 q 744 -4 781 -21 q 675 44 706 11 q 625 127 644 78 q 605 244 605 177 q 614 339 605 294 q 643 424 623 385 q 694 497 663 464 q 772 556 726 531 q 783 560 778 559 q 790 561 787 561 q 801 557 798 561 q 804 549 804 552 q 798 533 804 539 q 790 525 792 526 q 773 510 787 521 q 745 470 760 498 q 718 395 730 442 q 707 271 707 347 q 738 96 707 151 q 826 41 770 41 q 865 52 844 41 q 903 92 885 64 q 933 169 921 121 q 946 290 946 217 q 935 389 946 354 q 909 440 924 424 q 881 460 895 457 q 859 463 866 463 q 837 455 849 463 q 807 424 825 447 q 800 415 803 419 q 790 411 797 411 q 779 419 784 411 q 774 440 774 426 q 783 475 774 459 q 806 504 792 492 q 837 522 820 516 q 870 529 854 529 q 927 517 896 529 q 985 476 959 505 q 1030 397 1012 446 q 1047 271 1047 347 "},"#":{"x_min":-69.171875,"x_max":400.15625,"ha":356,"o":"m 333 576 l 393 576 q 400 569 400 576 q 399 565 400 568 q 396 550 399 562 q 383 540 393 540 l 326 540 l 299 389 l 365 389 q 372 383 372 389 q 372 379 372 381 q 368 363 371 376 q 356 354 365 354 l 292 354 q 279 284 285 317 q 268 225 273 250 q 260 183 263 200 q 257 164 257 167 q 242 142 252 145 q 223 139 232 139 q 190 142 200 139 q 181 161 179 145 l 204 354 l 106 354 q 93 284 99 317 q 82 225 87 250 q 74 183 78 200 q 71 164 71 167 q 56 142 66 145 q 37 139 46 139 q 4 142 14 139 q -4 161 -6 145 l 18 354 l -62 354 q -69 361 -69 354 q -68 367 -69 362 q -66 380 -68 373 q -54 389 -64 389 l 23 389 q 31 465 27 427 q 40 540 35 503 l -34 540 q -41 548 -41 540 q -41 554 -41 548 q -38 567 -40 559 q -26 576 -36 576 l 44 576 q 51 630 48 604 q 56 674 54 655 q 60 707 59 694 q 63 725 62 720 q 70 744 64 738 q 86 750 77 749 q 92 752 89 751 q 96 754 95 754 q 101 752 99 754 q 104 748 103 750 q 109 745 106 746 q 119 743 112 743 q 127 744 124 743 q 132 747 130 746 q 137 751 134 749 q 145 754 139 752 q 153 756 149 754 q 162 757 158 757 q 175 744 175 757 q 174 733 175 740 q 172 716 173 726 l 147 576 l 230 576 q 237 630 233 604 q 242 674 240 655 q 246 707 244 694 q 248 725 248 720 q 256 744 250 738 q 271 750 263 749 q 278 752 275 751 q 282 754 281 754 q 287 752 285 754 q 290 748 288 750 q 295 745 292 746 q 305 743 298 743 q 313 744 310 743 q 318 747 316 746 q 322 751 320 749 q 331 754 325 752 q 339 756 335 754 q 347 757 343 757 q 361 744 361 757 q 360 733 361 740 q 358 716 359 726 l 333 576 m 113 389 l 208 389 q 217 465 212 427 q 226 540 221 503 l 140 540 l 113 389 "},"_":{"x_min":-65.109375,"x_max":341.140625,"ha":288,"o":"m 340 -58 q 338 -69 337 -65 q 340 -79 340 -73 q 339 -84 340 -80 q 336 -96 336 -90 q 335 -111 335 -101 q 325 -128 335 -123 q 306 -136 316 -134 q 257 -143 293 -139 q 171 -147 222 -147 q 91 -144 130 -147 q 21 -139 52 -142 q -31 -132 -10 -136 q -57 -127 -52 -129 q -64 -119 -63 -124 q -65 -108 -65 -114 q -63 -90 -65 -101 q -57 -66 -61 -80 q -51 -54 -56 -59 q -34 -50 -46 -50 q -28 -50 -31 -50 q -21 -51 -25 -50 q 0 -53 -14 -52 q 35 -55 15 -54 q 77 -56 54 -56 q 122 -56 100 -56 q 158 -56 141 -56 q 189 -55 175 -56 q 267 -49 238 -52 q 309 -42 295 -47 q 323 -40 316 -40 q 341 -53 339 -40 q 340 -58 341 -56 "},"+":{"x_min":-51.546875,"x_max":317.40625,"ha":272,"o":"m 192 630 q 193 617 193 624 q 193 598 193 609 q 192 556 193 581 q 188 501 191 531 q 239 504 219 502 q 270 509 258 507 q 288 513 282 512 q 299 515 294 515 q 311 511 306 515 q 317 502 317 507 q 316 498 317 499 q 315 493 315 495 q 314 487 314 491 q 315 476 314 482 q 316 464 316 470 q 315 456 316 459 q 312 446 314 454 q 311 436 311 442 q 311 430 311 431 q 307 418 311 424 q 288 407 303 413 q 247 399 274 402 q 173 395 219 396 q 156 308 163 339 q 147 264 149 278 q 138 250 144 252 q 124 247 132 247 q 113 247 120 247 q 99 251 107 248 q 88 278 88 255 q 89 309 88 284 q 90 373 90 333 l 90 397 q 35 401 60 398 q -6 407 11 404 q -35 413 -25 410 q -47 417 -46 415 q -51 437 -51 420 q -49 460 -51 444 q -43 489 -48 475 q -36 501 -40 497 q -20 505 -31 505 q 11 503 -16 505 q 86 499 40 501 q 80 565 84 539 q 73 602 77 592 q 70 615 70 607 q 74 631 70 624 q 86 638 79 638 q 88 638 87 638 q 90 638 88 638 q 112 644 100 638 q 133 651 125 651 q 138 650 135 651 q 143 650 141 650 q 158 653 149 650 q 172 656 167 656 q 184 650 179 656 q 192 630 189 644 "},")":{"x_min":-35.265625,"x_max":297.734375,"ha":269,"o":"m 63 1024 q 96 1005 80 1024 q 159 930 124 973 q 224 826 193 887 q 276 685 255 765 q 297 499 297 604 q 277 306 297 394 q 224 146 256 218 q 155 18 193 73 q 84 -75 118 -36 q 25 -135 50 -113 q -6 -161 0 -157 q -21 -166 -14 -166 q -35 -153 -35 -166 q -34 -146 -35 -149 q -29 -138 -33 -143 q 0 -100 -19 -126 q 42 -33 18 -73 q 90 58 65 6 q 135 172 115 110 q 168 305 155 234 q 181 454 181 376 q 164 613 181 545 q 124 731 147 681 q 76 813 101 780 q 34 868 51 846 q 20 884 31 871 q -2 912 9 897 q -24 940 -14 927 q -34 959 -34 954 q -30 967 -34 963 q -14 975 -25 971 q -6 979 -10 976 q 1 984 -2 982 q 12 987 7 987 q 23 990 16 986 q 34 999 29 993 q 42 1010 38 1005 q 51 1020 46 1015 q 63 1024 56 1024 "},"'":{"x_min":29.84375,"x_max":139.03125,"ha":170,"o":"m 29 944 q 38 955 29 952 q 54 959 46 959 q 62 958 59 959 q 68 956 65 956 q 75 957 71 956 q 84 958 79 958 l 93 958 q 104 961 102 958 q 115 965 107 965 q 131 959 123 965 q 139 945 139 953 l 137 936 q 132 903 135 926 q 124 851 128 879 q 115 796 120 824 q 105 750 110 768 q 94 736 102 740 q 75 731 86 731 q 61 734 69 731 q 53 742 54 737 q 46 810 50 775 q 38 872 42 844 q 32 921 35 901 q 29 944 29 940 "},"}":{"x_min":-135.640625,"x_max":163.453125,"ha":129,"o":"m -135 884 q -135 890 -135 886 q -134 897 -135 893 q -129 905 -132 901 q -120 910 -126 908 q -113 918 -113 912 q -115 928 -113 923 q -118 936 -118 933 l -117 942 q -113 953 -116 945 q -106 970 -111 961 q -95 987 -101 980 q -80 994 -88 994 q -57 988 -71 994 q 16 947 -21 971 q 85 890 54 924 q 136 810 116 856 q 156 701 156 764 q 141 606 156 651 q 97 531 125 562 q 69 501 80 512 q 59 485 59 491 q 67 474 59 480 q 97 454 80 465 q 129 434 114 444 q 153 416 143 425 q 163 402 163 408 q 154 389 163 393 q 133 384 146 386 q 105 379 120 382 q 76 370 90 377 q 55 350 63 363 q 46 315 46 337 q 53 274 46 293 q 70 238 60 255 q 92 204 80 221 q 113 167 103 187 q 130 125 124 148 q 137 73 137 102 q 122 -8 137 27 q 84 -69 107 -43 q 33 -112 61 -94 q -21 -139 5 -129 q -70 -154 -48 -149 q -104 -158 -92 -158 q -120 -155 -115 -158 q -125 -146 -125 -151 q -115 -133 -125 -138 q -50 -90 -79 -115 q -3 -36 -22 -65 q 26 25 16 -6 q 35 87 35 56 q 27 138 35 113 q 7 185 18 162 q -12 233 -3 208 q -21 285 -21 257 q 7 364 -21 330 q 27 382 15 374 q 52 397 37 389 q 86 412 66 405 q 44 431 60 423 q 18 444 27 439 q 2 453 7 450 q -8 472 -8 461 q -2 491 -8 480 q 12 517 2 501 q 50 592 39 557 q 61 657 61 627 q 47 733 61 700 q 10 790 32 765 q -36 831 -11 814 q -84 859 -62 848 q -121 876 -106 870 q -135 884 -135 882 "},"a":{"x_min":-27.8125,"x_max":379.125,"ha":356,"o":"m 377 236 q 339 129 357 174 q 304 52 322 83 q 266 6 286 21 q 222 -9 246 -9 q 194 1 205 -9 q 176 23 183 12 q 165 47 169 34 q 160 63 162 59 q 159 67 160 65 q 157 70 158 70 q 154 68 155 70 q 152 64 153 66 q 141 46 150 59 q 120 21 132 33 q 89 0 107 8 q 51 -9 71 -9 q 21 0 35 -9 q -4 28 6 10 q -21 69 -14 45 q -27 120 -27 92 q -9 230 -27 179 q 51 335 9 282 q 94 379 71 360 q 139 412 117 399 q 180 432 160 425 q 215 439 200 439 q 233 436 224 439 q 250 424 243 432 q 262 403 258 416 q 267 370 267 389 q 260 326 267 350 q 241 282 254 303 q 210 248 229 261 q 169 234 192 234 q 155 245 155 234 q 159 269 155 252 q 162 302 162 286 q 162 317 162 308 q 159 331 161 325 q 153 342 157 338 q 141 347 149 345 q 108 327 122 345 q 84 290 93 310 q 69 243 74 269 q 65 198 65 217 q 69 154 65 172 q 80 127 73 137 q 95 112 86 116 q 113 107 104 107 q 154 133 136 107 q 184 179 173 159 q 203 213 194 198 q 217 229 211 229 q 225 215 223 229 q 235 153 229 184 q 246 110 241 122 q 254 96 250 99 q 265 91 257 93 q 282 104 272 92 q 303 136 293 115 q 324 183 313 156 q 347 241 335 210 q 364 258 354 258 q 379 244 379 257 q 377 236 379 240 "},"T":{"x_min":-9.5,"x_max":799.625,"ha":691,"o":"m 793 923 q 787 911 792 916 q 778 902 783 906 q 769 892 773 897 q 764 880 765 887 q 748 854 762 864 q 714 845 733 845 q 660 847 698 845 q 573 849 622 849 q 462 845 519 849 q 351 832 405 841 q 248 809 297 824 q 167 774 200 795 q 113 724 134 752 q 92 659 92 696 q 104 595 92 626 q 131 538 116 563 q 161 493 147 513 q 185 463 175 472 q 191 451 191 457 q 157 437 191 437 q 132 440 148 437 q 98 452 116 444 q 60 474 80 460 q 25 510 41 489 q 0 562 10 532 q -9 632 -9 592 q 20 745 -9 691 q 100 844 49 800 q 218 917 150 887 q 362 956 286 946 q 436 966 398 962 q 510 973 474 970 q 581 977 547 975 q 644 978 615 978 q 730 974 699 978 q 776 965 761 971 q 795 953 792 960 q 799 942 799 947 q 797 933 799 937 q 793 923 794 929 m 495 826 q 493 776 495 821 q 489 678 491 731 q 483 556 486 624 q 477 417 480 489 q 471 276 474 345 q 466 147 468 206 q 462 48 463 89 q 461 -6 461 7 q 459 -21 461 -13 q 453 -36 457 -29 q 439 -48 448 -43 q 417 -56 431 -54 q 395 -64 404 -59 q 377 -74 385 -69 q 363 -84 369 -80 q 352 -88 357 -88 q 347 -85 348 -88 q 345 -77 345 -82 q 344 -68 344 -73 q 344 -61 344 -64 q 348 80 345 -18 q 352 180 349 122 q 358 318 354 239 q 366 498 362 397 q 377 725 371 598 q 380 801 379 755 q 413 851 382 847 q 442 856 430 858 q 463 855 454 854 q 477 859 472 857 q 487 862 483 862 q 494 851 493 862 q 495 826 495 841 "},"=":{"x_min":59,"x_max":415.078125,"ha":475,"o":"m 415 616 q 407 597 411 607 q 398 584 404 588 q 394 570 395 582 q 392 559 393 564 q 390 550 390 554 q 390 542 390 547 q 391 533 391 537 q 380 519 391 526 q 347 506 370 512 q 288 497 324 500 q 203 493 252 493 q 125 495 153 493 q 82 500 97 497 q 66 506 71 502 q 61 524 61 510 q 62 545 61 531 q 65 573 63 560 q 73 588 67 583 q 88 592 79 592 q 102 591 94 592 q 126 590 110 590 q 160 590 141 590 q 197 591 178 590 q 235 594 217 592 q 269 598 254 596 q 318 607 296 601 q 357 618 341 613 q 384 627 374 623 q 399 631 395 631 q 411 628 406 631 q 415 619 415 624 l 415 616 m 394 420 q 392 411 392 417 q 393 400 392 405 q 394 389 394 394 q 393 383 394 385 q 392 380 393 381 q 391 377 392 379 q 390 370 391 375 q 390 362 390 370 q 389 354 389 355 q 384 341 389 347 q 362 329 379 335 q 314 321 345 324 q 230 318 282 318 q 164 321 194 318 q 112 326 134 323 q 76 333 90 330 q 62 338 63 337 q 59 355 59 341 q 60 375 59 361 q 65 402 61 389 q 73 419 68 415 q 87 423 78 423 q 119 420 101 421 q 200 418 148 418 q 287 421 254 418 q 340 427 321 423 q 367 433 360 430 q 379 436 375 436 q 390 433 385 436 q 394 424 394 430 q 394 420 394 421 "},"N":{"x_min":-59.6875,"x_max":776.5625,"ha":623,"o":"m 465 123 q 470 254 465 192 q 479 375 474 316 q 488 490 484 434 q 493 602 493 545 q 486 699 493 653 q 465 779 480 745 q 421 835 449 814 q 360 849 394 855 q 286 828 320 849 q 227 771 253 807 q 182 690 201 736 q 145 594 162 644 q 121 497 128 545 q 113 405 113 449 q 111 341 112 371 q 109 282 111 310 q 96 70 107 149 q 77 -40 85 -8 q 62 -65 72 -58 q 39 -73 51 -71 q 13 -74 26 -74 q -7 -78 1 -73 q -31 -83 -19 -83 q -51 -77 -43 -83 q -59 -58 -59 -71 q -59 -50 -59 -53 q -52 -17 -56 -42 q -42 44 -48 8 q -30 124 -36 80 q -18 213 -23 168 q -10 301 -13 259 q -6 379 -6 344 q -7 433 -6 397 q -8 516 -7 469 q -10 617 -8 563 q -15 726 -12 672 q -23 830 -18 779 q -35 921 -28 881 q -27 935 -36 927 q -11 950 -18 942 q -3 960 -6 954 q 1 970 0 965 q 5 977 3 974 q 11 982 8 980 q 29 987 23 986 q 38 989 35 988 q 44 991 42 990 q 53 995 47 992 q 63 1000 59 998 q 71 1002 68 1002 q 90 963 90 1002 q 94 896 92 933 q 97 833 96 864 q 99 746 97 803 q 162 845 129 806 q 228 908 195 885 q 286 941 261 931 q 335 957 311 950 q 373 965 358 964 q 387 966 387 966 q 475 952 438 966 q 539 914 512 938 q 583 857 566 890 q 610 788 600 825 q 624 710 620 750 q 628 629 628 669 q 626 552 628 589 q 619 483 623 515 q 611 398 615 438 q 603 318 607 357 q 598 239 600 278 q 596 159 596 200 q 604 1 596 71 q 632 -125 613 -68 q 682 -227 651 -182 q 760 -309 714 -272 q 772 -319 768 -315 q 776 -328 776 -322 q 764 -337 776 -337 q 749 -334 757 -337 q 648 -286 698 -320 q 556 -197 598 -252 q 488 -64 515 -142 q 465 123 461 13 "},"2":{"x_min":-27.125,"x_max":597.546875,"ha":575,"o":"m 597 662 q 583 545 598 596 q 541 451 569 494 q 473 372 513 408 q 395 299 433 335 q 309 225 356 263 q 180 121 261 187 q 223 125 191 122 q 290 128 255 128 q 349 126 321 128 q 402 124 377 124 q 498 135 457 124 q 561 165 539 145 q 583 180 578 180 q 589 170 589 180 q 588 160 589 165 q 585 149 586 155 q 576 129 582 143 q 558 98 569 115 q 529 63 546 81 q 488 29 512 44 q 434 5 465 14 q 366 -4 404 -4 q 307 1 338 -4 q 245 14 276 7 q 182 26 213 21 q 122 32 151 32 q 74 29 96 32 q 35 22 52 26 q 8 3 21 9 q -12 -2 -4 -2 q -27 13 -27 -2 q -17 38 -27 25 q 5 65 -8 52 q 33 89 18 78 q 57 107 48 100 q 106 145 84 127 q 160 188 128 163 q 224 241 191 212 q 288 299 257 269 q 343 360 318 329 q 394 425 368 392 q 439 526 422 472 q 457 634 457 579 q 450 720 459 675 q 421 800 441 766 q 361 856 401 834 q 280 879 322 877 q 207 862 238 876 q 155 826 177 847 q 121 773 134 805 q 107 685 107 742 q 127 576 107 632 q 195 466 146 520 q 202 452 202 458 q 187 440 202 440 q 184 440 186 440 q 179 441 181 440 q 157 446 173 442 q 119 460 140 451 q 75 485 98 470 q 33 526 52 501 q 1 586 14 552 q -10 668 -10 621 q 3 767 -10 723 q 40 843 16 810 q 95 900 64 876 q 160 939 126 924 q 228 961 193 954 q 293 967 263 967 q 355 962 322 967 q 422 944 389 957 q 487 909 456 931 q 542 853 518 887 q 581 772 567 819 q 597 662 596 725 "},"j":{"x_min":-181.078125,"x_max":258.40625,"ha":235,"o":"m 242 268 q 258 246 258 257 q 256 236 258 242 q 224 138 240 175 q 189 73 207 101 q 148 20 170 44 q 92 -44 126 -4 q 87 -92 90 -67 q 78 -158 84 -117 q 49 -293 67 -241 q 13 -376 32 -345 q -24 -422 -5 -407 q -57 -444 -43 -436 q -87 -456 -72 -451 q -116 -461 -103 -461 q -164 -430 -147 -461 q -181 -348 -181 -398 q -179 -315 -181 -330 q -171 -282 -177 -299 q -141 -213 -159 -245 q -101 -153 -123 -181 q -56 -98 -80 -125 q -9 -50 -32 -71 q -1 95 -3 24 q 3 218 1 166 q 4 239 3 224 q 6 274 4 255 q 9 313 7 293 q 14 349 11 333 q 39 388 25 370 q 68 418 54 405 q 95 437 83 430 q 114 444 108 444 q 118 437 118 444 q 116 418 118 431 q 112 380 114 404 q 107 320 109 356 q 103 231 105 284 q 100 117 101 160 q 97 35 99 73 q 137 85 117 59 q 172 139 157 111 q 199 196 187 167 q 223 251 211 224 q 242 268 229 268 m 151 498 q 153 489 153 494 q 137 462 153 476 q 111 438 123 450 q 90 418 100 427 q 73 403 81 408 q 61 398 66 398 q 55 399 58 398 q 49 405 52 400 q 33 438 41 421 q 18 470 25 455 q 8 496 12 484 q 4 511 4 507 q 10 527 4 518 q 23 543 13 531 q 44 567 33 554 q 65 591 55 580 q 78 605 75 602 q 92 615 86 615 q 101 606 98 615 q 110 585 103 601 q 126 552 118 570 q 141 518 134 534 q 151 498 149 503 m -21 -187 q -18 -161 -20 -174 q -16 -136 -17 -149 q -49 -180 -34 -157 q -76 -228 -65 -203 q -95 -287 -88 -254 q -101 -343 -102 -321 q -96 -379 -101 -370 q -86 -388 -92 -388 q -69 -377 -80 -388 q -52 -343 -59 -366 q -40 -299 -45 -320 q -32 -260 -35 -278 q -27 -222 -30 -242 q -21 -187 -23 -203 "},"Z":{"x_min":-35.265625,"x_max":677.546875,"ha":638,"o":"m 359 971 q 476 951 418 971 q 578 891 534 932 q 650 784 623 851 q 677 618 677 717 q 659 483 677 543 q 611 373 641 422 q 541 286 581 324 q 457 220 501 248 q 382 175 413 191 q 320 145 352 160 q 367 135 345 143 q 411 117 389 127 q 457 91 433 107 q 500 52 480 75 q 531 -1 520 29 q 542 -71 542 -31 q 575 -82 560 -76 q 602 -93 590 -88 q 613 -107 613 -99 q 610 -115 613 -111 q 599 -118 607 -118 q 588 -119 596 -118 q 562 -122 580 -120 l 535 -122 q 507 -189 530 -149 q 453 -263 485 -229 q 381 -327 421 -298 q 299 -376 341 -356 q 213 -408 257 -397 q 130 -419 170 -419 q 67 -405 97 -419 q 14 -366 37 -390 q -21 -310 -8 -341 q -35 -246 -35 -279 q -13 -165 -35 -204 q 59 -96 8 -126 q 183 -48 119 -62 q 310 -35 246 -35 q 367 -37 339 -35 q 423 -44 396 -40 q 403 11 414 -6 q 372 45 392 29 q 323 67 352 61 q 259 77 294 73 q 213 76 237 77 q 171 77 189 75 q 140 78 153 79 q 120 78 126 78 q 101 82 109 78 q 92 95 92 86 q 94 121 92 111 q 109 137 96 131 q 170 159 131 145 q 255 198 209 173 q 352 257 301 223 q 439 333 402 290 q 503 445 476 376 q 530 611 530 515 q 512 734 530 694 q 466 805 495 773 q 404 850 438 837 q 336 862 369 862 q 260 844 300 862 q 187 786 221 826 q 132 697 154 746 q 111 554 111 647 q 115 479 111 513 q 127 417 120 444 q 142 371 134 390 q 156 340 149 352 q 162 330 160 335 q 164 322 164 326 q 150 311 164 311 q 135 315 145 311 q 115 325 129 317 q 85 349 102 334 q 50 387 68 364 q 16 439 31 409 q -7 506 2 469 q -16 590 -16 544 q 0 706 -16 653 q 47 800 17 758 q 112 875 76 842 q 191 929 149 908 q 277 961 234 950 q 359 971 320 971 m 110 -327 q 161 -321 141 -324 q 215 -303 181 -317 q 282 -269 248 -289 q 343 -223 315 -249 q 389 -170 370 -197 q 415 -107 407 -144 q 396 -106 405 -106 q 377 -106 387 -106 q 315 -109 346 -106 q 253 -118 283 -111 q 172 -142 210 -127 q 102 -182 133 -156 q 59 -230 70 -207 q 47 -277 47 -253 q 60 -309 47 -295 q 110 -327 72 -323 "},"u":{"x_min":1.359375,"x_max":459.828125,"ha":436,"o":"m 457 236 q 418 129 436 175 q 383 53 401 84 q 345 6 366 22 q 297 -8 324 -8 q 257 5 273 -8 q 231 40 240 18 q 217 76 221 61 q 214 109 213 92 q 214 143 214 126 q 215 173 214 159 q 187 83 200 113 q 155 31 173 52 q 121 0 138 10 q 84 -10 103 -10 q 55 -3 70 -10 q 29 24 41 4 q 9 81 16 44 q 1 179 1 118 q 2 215 1 193 q 4 260 2 236 q 9 306 6 283 q 17 347 12 328 q 23 366 19 355 q 29 381 26 378 q 42 394 37 388 q 50 399 47 399 q 58 395 55 399 q 65 392 61 392 q 72 395 67 392 q 85 402 78 398 q 98 410 92 406 q 107 413 105 413 q 115 398 115 413 q 115 389 115 394 q 113 376 114 383 q 104 292 107 333 q 102 206 102 252 q 103 159 102 180 q 106 123 103 138 q 111 104 108 107 q 121 97 113 100 q 146 115 134 97 q 167 162 158 133 q 186 225 177 190 q 203 292 195 259 q 220 353 211 325 q 237 395 228 381 q 264 414 246 408 q 295 419 282 419 q 317 408 310 419 q 323 365 323 397 q 322 322 323 342 q 319 280 320 301 q 316 233 318 258 q 315 178 315 208 q 317 133 315 150 q 324 106 320 115 q 329 94 328 96 q 335 92 330 92 q 353 103 347 94 q 370 132 360 113 q 392 179 381 151 q 417 242 403 207 q 425 255 420 250 q 449 257 430 259 q 456 253 453 257 q 459 245 459 250 q 457 236 459 240 "},"1":{"x_min":-45.4375,"x_max":259.1875,"ha":241,"o":"m 229 59 q 223 32 229 41 q 198 18 218 24 q 184 15 190 16 q 172 11 179 13 q 158 6 166 9 q 139 -1 150 3 q 125 -5 130 -5 q 112 10 114 -5 q 115 150 113 52 q 119 249 117 191 q 124 385 121 307 q 130 561 126 462 q 136 764 134 659 q 136 773 136 767 q 137 785 137 778 q 73 725 105 750 q -17 688 42 699 q -31 685 -25 685 q -42 688 -38 685 q -45 696 -45 691 q -38 708 -45 703 q 41 783 10 745 q 90 853 71 822 q 118 907 109 885 q 132 935 127 929 q 147 949 139 944 q 166 954 155 954 q 178 952 172 954 q 192 946 183 949 q 218 935 205 940 q 242 925 230 931 q 256 909 252 919 q 259 881 259 898 q 258 853 259 876 q 256 792 257 830 q 253 705 255 754 q 249 601 251 656 q 245 487 247 545 q 241 372 243 428 q 237 263 239 315 q 233 169 235 210 q 231 98 232 127 q 229 59 230 69 "},"k":{"x_min":-4.75,"x_max":430.671875,"ha":402,"o":"m 420 257 q 427 253 424 257 q 430 245 430 250 q 428 236 430 240 q 392 141 411 185 q 352 64 373 96 q 310 11 332 31 q 266 -7 289 -7 q 240 -3 258 -7 q 198 16 222 0 q 147 66 174 33 q 95 148 120 99 q 96 92 94 116 q 99 55 98 69 q 102 34 101 41 q 103 23 103 28 q 97 14 103 16 q 85 10 91 12 q 77 6 80 10 q 69 -2 73 2 q 59 -11 65 -7 q 42 -14 52 -14 q 27 -12 35 -14 q 13 -3 20 -9 q 3 13 7 2 q -2 40 -1 23 q -4 105 -3 70 q -4 174 -4 139 q 0 327 -4 252 q 10 474 3 402 q 24 617 16 546 q 39 756 31 687 q 44 800 42 781 q 50 831 46 818 q 59 853 54 845 q 71 869 64 862 q 91 886 82 878 q 109 902 101 895 q 126 913 118 909 q 140 918 134 918 q 152 912 147 918 q 158 891 158 906 q 152 846 158 881 q 138 744 147 811 q 119 574 130 677 q 99 345 108 472 q 96 294 97 319 q 96 246 96 269 l 96 242 q 107 261 102 253 q 118 275 113 268 q 127 288 122 282 q 139 303 132 293 q 177 343 166 333 q 197 362 187 352 q 208 380 206 375 q 214 391 210 385 q 223 405 217 397 q 243 425 229 413 q 274 430 265 430 q 282 426 278 430 q 288 418 286 423 q 292 408 290 413 q 293 399 293 402 q 292 391 293 395 q 288 383 291 387 q 279 372 286 380 q 262 353 271 364 q 241 329 252 341 q 220 306 230 317 q 203 286 210 295 q 192 273 195 277 q 180 256 185 263 q 176 238 176 248 q 181 213 176 227 q 199 177 187 199 q 246 114 225 132 q 288 91 267 96 q 318 104 305 91 q 343 138 330 116 q 366 186 355 160 q 389 240 378 212 q 420 257 396 257 "},"€":{"x_min":16.5,"x_max":704,"ha":732,"o":"m 405 449 q 420 445 414 449 q 426 436 426 442 q 424 428 426 431 q 423 419 423 425 q 422 413 423 415 q 421 404 422 410 q 420 397 420 402 q 420 392 420 393 q 416 383 420 386 q 394 377 411 379 q 343 375 377 375 q 250 375 309 375 l 221 375 q 252 243 229 297 q 306 153 276 188 q 373 103 337 119 q 443 88 409 88 q 523 107 487 88 q 587 158 558 126 q 637 231 615 189 q 674 320 658 274 q 683 333 677 329 q 694 337 689 337 q 704 326 704 337 q 698 304 704 322 q 683 262 693 286 q 661 209 674 238 q 634 155 649 181 q 529 38 588 78 q 390 -1 470 -1 q 269 28 322 -1 q 179 108 216 57 q 121 227 142 159 q 97 371 101 295 q 44 370 63 370 q 22 373 24 370 q 19 381 20 374 q 18 395 18 387 q 17 401 18 397 q 16 411 16 406 q 16 422 16 417 q 19 432 17 427 q 26 439 22 436 q 42 443 31 443 l 97 446 q 100 482 99 465 q 104 518 102 500 q 47 516 68 516 q 25 519 27 516 q 22 527 23 520 q 21 541 21 534 q 21 556 21 545 q 26 574 21 566 q 33 582 29 578 q 49 585 37 585 q 70 588 52 585 q 118 593 88 590 q 153 698 132 651 q 198 784 174 746 q 246 850 221 822 q 293 896 271 878 q 330 923 309 909 q 378 948 352 937 q 434 966 404 959 q 494 973 463 973 q 578 961 540 973 q 642 926 615 948 q 683 873 669 904 q 698 807 698 843 q 691 754 698 781 q 670 703 685 728 q 639 662 657 679 q 601 633 621 644 q 564 616 582 621 q 531 610 545 610 q 510 615 517 610 q 503 629 503 621 q 512 645 503 638 q 529 657 517 648 q 551 684 540 667 q 571 726 562 701 q 579 786 579 752 q 568 838 579 817 q 536 871 556 859 q 493 889 517 884 q 445 895 470 895 q 368 873 404 895 q 305 811 333 851 q 257 717 277 771 q 227 597 237 662 q 323 597 285 597 q 384 596 361 596 q 420 595 408 596 q 439 595 432 595 q 454 591 448 595 q 460 582 460 588 q 459 579 460 579 q 457 572 457 577 q 458 565 457 569 q 459 558 459 561 q 458 553 459 554 q 455 547 456 552 q 454 538 454 544 q 454 531 454 532 q 444 523 454 525 q 412 520 435 520 q 351 520 389 519 q 253 520 312 520 l 219 520 q 217 459 217 490 l 217 451 q 243 451 230 451 q 269 451 256 451 q 311 451 290 451 q 351 450 333 451 q 384 450 370 450 q 405 449 398 449 "},"<":{"x_min":-57.65625,"x_max":261.796875,"ha":147,"o":"m 259 634 q 261 628 261 632 q 257 615 261 622 q 248 602 253 607 q 227 585 246 601 q 178 548 207 569 q 113 503 148 526 q 46 465 78 480 q 145 387 105 429 q 208 310 184 346 q 243 249 232 275 q 256 219 254 224 l 257 210 q 254 202 257 205 q 247 200 251 200 q 236 206 242 200 q 217 226 231 212 q 180 260 202 241 q 132 300 158 279 q 77 341 105 322 q 22 377 50 361 q -28 401 -4 393 q -44 411 -38 404 q -50 433 -50 417 q -51 468 -50 451 q -56 497 -52 485 q -57 501 -57 499 q -50 515 -57 509 q -36 523 -43 520 q -14 536 -33 524 q 33 569 3 547 q 105 625 63 591 q 196 706 146 659 q 211 719 204 714 q 221 725 217 725 q 226 720 225 725 q 228 709 227 715 q 230 697 229 703 q 233 689 231 691 q 243 677 240 684 q 247 662 246 670 q 251 647 249 654 q 259 634 253 639 "},"t":{"x_min":-105.125,"x_max":272.640625,"ha":249,"o":"m 270 236 q 231 127 248 173 q 196 50 214 81 q 158 4 179 19 q 109 -10 138 -10 q 75 -1 93 -10 q 41 33 56 7 q 15 105 25 59 q 5 226 5 151 q 7 278 5 246 q 11 350 8 310 q 16 434 13 389 q 24 523 20 478 q 18 522 21 522 q 12 522 15 522 q -41 515 -24 518 q -61 508 -58 512 q -65 503 -65 505 q -66 498 -65 501 q -68 492 -66 495 q -75 490 -69 490 q -83 492 -78 490 q -93 497 -88 493 q -102 505 -99 501 q -105 518 -105 510 q -102 533 -105 525 q -94 549 -99 541 q -80 569 -89 557 q -55 592 -71 580 q -18 614 -40 604 q 34 630 4 624 q 41 681 37 659 q 49 720 45 703 q 57 751 53 737 q 65 777 61 765 q 85 817 73 803 q 113 847 97 831 q 142 869 130 864 q 160 876 153 875 q 171 872 166 876 q 176 859 176 868 q 175 850 176 853 q 174 843 174 846 q 167 817 172 836 q 157 770 163 798 q 145 709 151 743 q 134 636 139 674 q 196 627 171 633 q 226 619 221 620 q 242 611 238 615 q 249 600 246 608 q 256 591 252 594 q 263 585 259 588 q 269 579 267 582 q 272 569 272 575 q 269 559 272 564 q 263 552 267 554 q 246 547 259 550 q 215 542 233 545 q 173 538 196 540 q 124 533 149 535 q 108 370 116 448 q 101 231 101 293 q 104 174 101 200 q 115 130 108 149 q 130 103 123 111 q 153 91 137 94 q 174 101 165 91 q 196 136 183 111 q 218 184 208 161 q 237 240 227 207 q 255 257 243 257 q 272 244 272 257 q 271 240 272 242 q 270 236 271 237 "},"W":{"x_min":-23.734375,"x_max":1215.375,"ha":1184,"o":"m 425 69 q 436 57 425 57 q 467 70 446 57 q 520 113 488 83 q 607 227 579 179 q 654 356 634 276 q 681 519 674 437 q 689 679 689 602 q 683 804 689 737 q 660 934 678 870 q 660 943 659 937 q 664 954 661 949 q 670 964 666 960 q 680 968 674 968 q 688 966 683 968 q 697 962 692 964 q 735 954 719 954 q 763 948 752 954 q 776 933 773 943 q 788 914 780 924 q 796 910 790 911 q 808 907 802 908 q 818 903 814 906 q 824 895 823 901 q 826 863 825 884 q 826 801 826 841 q 822 676 826 748 q 809 533 818 605 q 793 423 797 478 q 786 314 789 368 q 781 217 783 260 q 779 145 779 174 q 779 88 779 116 q 780 54 780 61 q 790 42 780 42 q 827 54 802 42 q 896 107 852 67 q 982 226 954 170 q 1030 363 1009 281 q 1061 527 1052 446 q 1069 680 1069 609 q 1069 740 1069 708 q 1068 804 1069 771 q 1063 870 1066 837 q 1051 934 1059 903 q 1053 945 1050 940 q 1060 956 1056 951 q 1070 965 1064 961 q 1081 968 1076 968 q 1089 966 1085 968 q 1099 963 1093 965 q 1117 957 1109 959 q 1132 954 1125 956 q 1144 952 1138 953 q 1155 948 1149 951 q 1168 933 1164 943 q 1179 914 1171 924 q 1187 910 1182 911 q 1198 907 1193 908 q 1207 903 1203 906 q 1212 895 1211 901 q 1214 863 1214 884 q 1215 801 1215 841 q 1211 719 1215 769 q 1198 609 1207 669 q 1172 483 1188 549 q 1132 356 1157 418 q 1098 272 1119 320 q 1045 171 1077 224 q 968 64 1012 118 q 853 -40 925 10 q 822 -59 838 -50 q 787 -76 805 -69 q 753 -85 769 -84 q 725 -86 737 -86 q 699 -82 710 -86 q 683 -70 689 -77 q 674 -55 677 -63 q 672 -41 672 -48 q 672 -12 672 -33 q 672 28 673 7 q 672 80 672 48 q 675 154 672 112 q 600 57 644 99 q 484 -35 556 15 q 453 -55 470 -46 q 420 -71 436 -65 q 387 -82 403 -78 q 360 -86 372 -86 q 335 -82 345 -86 q 318 -70 324 -77 q 309 -55 312 -63 q 307 -41 307 -48 q 310 54 307 -12 q 314 221 314 122 q 304 490 314 339 q 265 816 295 642 q 263 825 264 822 q 258 827 262 827 l 250 826 q 171 804 200 817 q 122 763 143 790 q 94 710 102 736 q 86 656 86 683 q 95 590 86 620 q 116 535 105 559 q 142 493 126 512 q 170 463 158 474 q 178 451 178 456 q 146 438 178 438 q 124 440 139 438 q 90 449 109 442 q 51 469 71 456 q 14 503 31 482 q -12 556 -2 525 q -23 632 -23 588 q 4 747 -23 691 q 81 848 32 803 q 193 925 129 893 q 330 966 258 956 q 353 968 343 968 q 377 961 369 968 q 387 938 385 954 q 420 595 412 753 q 428 314 428 436 q 428 227 428 255 q 428 165 429 199 q 426 106 427 132 q 425 69 425 80 "},"v":{"x_min":0,"x_max":415.75,"ha":392,"o":"m 413 236 q 373 174 400 196 q 311 152 345 152 q 277 157 293 152 q 238 88 260 119 q 191 34 215 56 q 143 -1 167 11 q 99 -13 120 -13 q 84 -8 90 -13 q 70 6 78 -3 q 50 41 62 18 q 26 97 37 63 q 7 176 15 130 q 0 281 0 222 q 3 327 0 309 q 10 358 6 346 q 18 378 14 370 q 27 389 23 385 q 35 396 31 393 q 41 399 38 399 q 48 395 45 399 q 55 392 52 392 q 63 395 58 392 q 74 402 69 398 q 86 410 80 406 q 95 413 92 413 q 102 409 99 413 q 105 396 105 406 q 103 379 105 387 q 100 360 102 371 q 97 333 99 349 q 96 290 96 316 q 109 160 96 215 q 150 63 122 105 q 166 86 157 73 q 185 114 176 99 q 202 147 195 130 q 215 196 210 163 q 191 226 203 208 q 169 265 179 243 q 156 302 160 283 q 152 339 152 322 q 158 379 152 360 q 173 412 164 398 q 197 434 183 426 q 226 442 210 442 q 288 409 263 442 q 313 315 313 375 q 306 249 313 281 q 293 196 300 217 q 316 192 305 192 q 356 202 340 192 q 382 240 371 212 q 399 257 388 257 q 412 254 408 257 q 415 246 415 251 q 413 236 415 242 m 191 340 q 198 291 191 318 q 221 243 205 265 q 223 272 222 257 q 223 304 223 287 q 219 360 223 338 q 204 381 215 381 q 197 378 199 381 q 193 368 195 375 q 191 354 191 362 q 191 340 191 347 "},">":{"x_min":-103.09375,"x_max":216.359375,"ha":186,"o":"m -100 639 q -93 651 -95 644 q -89 667 -90 659 q -84 681 -87 674 q -75 693 -81 689 q -71 701 -72 695 q -69 714 -70 708 q -67 725 -69 720 q -62 730 -66 730 q -52 724 -59 730 q -37 711 -46 718 q 53 630 12 663 q 125 574 94 596 q 173 540 155 552 q 195 528 191 529 q 209 519 202 525 q 216 506 216 514 q 215 501 216 504 q 210 473 211 490 q 209 438 209 455 q 203 416 209 422 q 187 406 197 409 q 135 382 163 398 q 80 346 108 366 q 26 305 52 326 q -21 265 0 284 q -58 231 -43 246 q -78 211 -73 217 q -88 204 -84 204 q -95 207 -92 204 q -99 215 -99 210 l -97 223 q -85 254 -95 229 q -50 315 -74 280 q 13 392 -26 351 q 111 470 52 434 q 44 508 79 485 q -20 552 9 531 q -68 590 -49 574 q -89 607 -88 606 q -99 619 -94 612 q -103 633 -103 627 q -100 639 -103 636 "},"s":{"x_min":-11.53125,"x_max":316.734375,"ha":290,"o":"m 203 116 l 208 120 q 243 160 222 133 q 286 241 264 187 q 307 257 293 258 q 316 246 316 257 q 314 236 316 242 q 281 160 299 191 q 244 107 263 129 q 206 72 225 86 q 171 52 187 59 q 130 7 153 26 q 75 -12 107 -12 q 41 -3 55 -12 q 18 18 27 5 q 5 46 9 31 q 1 73 1 61 q 7 115 1 96 q 21 146 12 133 q 38 165 29 159 q 53 172 47 172 q 69 158 61 172 q 87 120 78 145 q 109 73 99 89 q 128 76 119 74 q 147 81 138 78 q 152 98 152 90 q 146 124 152 110 q 129 157 140 138 q 106 194 119 175 q 81 231 93 214 q 60 260 68 248 q 46 280 52 271 q 37 253 41 265 q 31 234 34 242 q 22 216 26 221 q 8 212 18 212 q -3 231 -3 219 q -2 240 -3 236 q 7 272 3 258 q 13 295 10 286 q 18 315 16 307 q -2 348 6 329 q -11 396 -11 366 q -3 442 -11 417 q 16 490 4 467 q 43 526 28 512 q 71 541 57 541 q 85 536 79 541 q 96 523 92 531 q 103 504 101 515 q 105 484 105 494 q 97 432 105 461 q 95 424 96 429 q 94 413 94 419 q 120 358 94 394 q 185 279 146 323 q 211 235 203 258 q 219 181 219 211 q 219 161 219 171 q 212 132 219 151 l 203 116 "},"B":{"x_min":-23.734375,"x_max":781.984375,"ha":751,"o":"m 781 658 q 763 540 781 594 q 709 446 744 486 q 640 381 675 406 q 548 348 604 356 q 603 330 582 343 q 649 294 623 318 q 691 233 675 271 q 707 139 707 196 q 689 53 707 94 q 640 -17 672 12 q 566 -66 609 -48 q 445 -67 522 -84 q 379 -43 404 -56 q 329 -7 354 -29 q 296 31 305 14 q 284 68 286 49 q 289 111 287 106 q 297 116 292 116 q 305 112 302 116 q 311 101 309 107 q 359 50 328 73 q 425 20 390 28 q 498 15 463 12 q 550 40 533 18 q 576 87 567 61 q 584 139 584 113 q 563 230 584 195 q 511 287 542 266 q 446 317 480 308 q 384 328 411 326 q 370 334 375 329 q 366 347 366 339 q 370 361 366 354 q 381 368 375 367 q 497 392 448 373 q 578 443 545 411 q 626 524 610 476 q 641 635 641 571 q 621 724 641 683 q 565 795 600 765 q 481 841 529 824 q 378 857 434 857 q 276 847 328 857 q 181 813 223 836 q 110 750 138 789 q 83 653 83 711 q 90 596 83 623 q 108 547 98 569 q 128 509 118 524 q 145 485 139 493 q 151 476 148 481 q 153 466 153 470 q 149 457 153 461 q 133 453 145 453 q 90 464 117 453 q 38 498 63 475 q -5 557 12 521 q -23 642 -23 593 q -10 714 -23 676 q 29 787 3 751 q 93 856 55 824 q 181 913 132 889 q 289 952 230 937 q 418 967 349 967 q 583 939 514 967 q 696 867 652 911 q 761 767 740 822 q 781 658 781 712 m 283 834 q 302 858 290 849 q 330 867 314 867 q 344 864 335 867 q 353 853 353 860 q 352 843 353 847 q 349 831 351 838 q 331 672 343 773 q 314 512 320 570 q 302 401 307 455 q 296 303 298 348 q 292 222 293 257 q 291 166 291 187 q 290 59 291 99 q 290 -1 290 19 q 290 -8 290 -4 q 288 -17 290 -13 q 284 -25 287 -22 q 276 -29 281 -29 q 259 -25 267 -29 q 245 -17 252 -22 q 232 -10 238 -13 q 219 -6 225 -6 q 207 -11 212 -6 q 196 -16 202 -16 q 183 -12 187 -16 q 176 -2 178 -8 q 173 10 174 4 q 173 23 173 17 q 175 98 173 48 q 180 216 177 148 q 185 300 182 255 q 192 390 188 345 q 201 477 196 435 q 209 555 205 520 q 216 614 212 590 q 225 730 219 638 q 230 783 227 762 q 240 811 233 804 q 251 822 244 817 q 265 830 257 826 q 283 834 273 834 "},"?":{"x_min":27.125,"x_max":603.625,"ha":631,"o":"m 322 972 q 385 965 352 972 q 449 944 418 959 q 509 906 480 929 q 558 850 537 883 q 591 775 579 817 q 603 678 603 732 q 585 562 603 610 q 540 481 568 515 q 480 421 513 446 q 416 374 447 396 q 361 326 385 351 q 328 266 337 301 q 323 251 325 257 q 318 244 321 246 q 309 241 314 242 q 293 241 303 241 q 273 248 281 242 q 265 267 265 254 q 269 292 265 276 q 284 331 273 309 q 314 380 295 354 q 363 434 333 406 q 448 545 423 488 q 474 662 474 603 q 464 744 474 701 q 433 825 455 788 q 379 887 412 862 q 301 911 346 911 q 240 897 269 911 q 190 856 212 883 q 157 787 169 828 q 145 693 145 746 q 164 587 145 642 q 232 479 183 532 q 239 465 239 472 q 226 455 239 455 l 221 455 q 217 455 219 455 q 194 460 210 456 q 157 474 178 465 q 112 500 135 484 q 70 540 90 516 q 39 600 51 565 q 27 681 27 634 q 40 774 27 733 q 75 848 53 815 q 127 904 97 881 q 189 943 156 927 q 256 965 222 958 q 322 972 290 972 m 356 78 q 357 70 357 75 q 354 60 357 65 q 343 50 351 55 q 328 39 337 46 q 309 24 318 31 q 293 11 300 17 q 284 5 286 6 q 278 1 282 3 q 269 -1 274 -1 q 257 5 263 -1 q 248 19 253 9 q 236 39 242 29 q 225 60 230 50 q 218 73 220 69 q 214 81 216 78 q 212 87 212 84 q 219 100 212 93 l 284 162 q 290 166 286 164 q 297 168 294 168 q 307 162 303 168 q 316 145 309 158 q 332 119 324 132 q 347 93 340 105 q 356 78 354 81 "},"H":{"x_min":-63.078125,"x_max":868.796875,"ha":796,"o":"m 398 929 q 395 901 397 925 q 391 835 394 876 q 384 741 388 795 q 377 627 381 688 q 369 501 373 567 q 370 406 365 436 l 403 383 q 543 418 468 395 q 681 459 619 442 l 713 923 q 715 940 714 933 q 718 952 716 947 q 725 959 720 956 q 737 963 729 962 q 748 968 744 965 q 754 976 752 972 q 759 984 756 980 q 769 990 763 988 q 782 996 775 992 q 796 1004 789 1000 q 809 1012 803 1009 q 820 1015 815 1015 q 833 1009 828 1015 q 839 993 839 1003 q 837 964 839 988 q 833 901 836 940 q 827 811 830 862 q 818 700 823 759 q 809 578 814 642 q 803 482 804 514 q 831 488 820 487 q 847 491 843 489 q 861 474 858 482 q 866 467 863 471 q 868 459 868 464 q 866 446 868 453 q 856 436 863 440 q 837 426 852 432 q 796 411 822 421 q 785 261 790 333 q 775 133 779 189 q 768 43 771 77 q 765 5 765 8 q 754 -18 763 -12 q 731 -25 746 -25 q 713 -20 722 -25 q 691 -5 704 -14 q 663 18 678 3 q 621 59 649 33 q 550 127 581 99 q 489 180 518 155 q 433 226 460 205 q 376 274 406 248 q 365 270 368 271 q 354 267 361 269 q 347 165 350 213 q 341 80 343 118 q 337 17 339 42 q 334 -16 335 -8 q 323 -76 331 -42 q 296 -145 316 -109 q 242 -215 277 -181 q 151 -278 208 -250 q 144 -281 147 -280 q 136 -282 141 -282 q 127 -278 130 -282 q 124 -269 124 -274 q 126 -258 124 -263 q 135 -248 129 -252 q 154 -233 143 -243 q 177 -207 166 -224 q 198 -165 189 -190 q 208 -103 206 -139 q 213 -43 210 -85 q 220 60 216 -7 q 231 238 224 127 q 195 235 212 236 q 162 233 178 233 q 65 246 107 233 q -5 281 23 259 q -48 331 -33 303 q -63 390 -63 359 q -53 443 -63 421 q -27 479 -44 465 q 11 503 -10 493 q 59 512 33 512 q 146 497 99 512 q 243 461 193 482 l 267 893 q 282 924 268 914 q 318 933 296 933 q 324 933 323 933 q 326 932 324 932 q 336 935 331 932 q 344 942 340 938 q 353 949 349 946 q 360 952 356 952 q 375 958 367 952 q 389 963 382 963 q 400 950 400 963 q 398 929 400 943 m 472 311 q 567 228 522 272 q 658 132 611 184 l 674 369 q 574 336 628 354 q 472 311 520 319 m 206 326 q 221 328 216 327 q 233 329 226 328 l 236 374 q 169 406 199 396 q 118 416 139 416 q 80 406 92 415 q 70 384 68 397 q 78 358 70 371 q 101 339 86 345 q 143 328 116 333 q 206 326 169 323 "},"c":{"x_min":-23.0625,"x_max":342.5,"ha":297,"o":"m 320 257 q 342 245 342 257 q 340 233 342 240 q 318 180 330 205 q 296 136 306 155 q 273 94 284 113 q 241 51 259 71 q 203 16 223 31 q 159 -6 183 2 q 109 -14 136 -14 q 67 -8 90 -14 q 24 16 44 -1 q -9 67 4 35 q -23 150 -23 99 q -6 239 -23 191 q 46 335 9 288 q 93 385 69 365 q 140 417 118 405 q 181 434 162 430 q 214 439 200 439 q 233 435 223 439 q 250 423 242 432 q 262 402 257 415 q 267 370 267 389 q 261 329 267 350 q 243 287 255 307 q 222 261 233 271 q 201 245 211 251 q 182 237 190 239 q 168 234 173 234 q 154 246 154 234 q 158 269 154 253 q 162 305 162 284 q 162 318 162 310 q 159 333 162 326 q 153 343 157 341 q 140 345 150 345 q 119 336 130 345 q 98 308 108 327 q 79 253 87 280 q 71 202 71 226 q 76 155 71 181 q 90 111 80 130 q 112 81 99 92 q 147 66 126 69 q 196 81 178 63 q 233 127 214 99 q 267 187 252 156 q 293 241 282 219 q 320 257 309 257 "},"&":{"x_min":-31.203125,"x_max":611.75,"ha":505,"o":"m 602 -63 q 611 -78 611 -72 q 601 -86 611 -86 q 592 -84 597 -86 q 569 -73 588 -83 q 523 -44 551 -63 q 460 0 495 -26 q 388 63 425 27 q 295 8 345 29 q 183 -18 245 -12 q 94 0 135 -18 q 24 50 54 18 q -18 128 -5 82 q -31 220 -31 173 q -18 302 -31 265 q 16 368 -5 338 q 68 422 38 398 q 130 469 97 446 q 108 565 115 518 q 102 661 102 613 q 110 745 102 704 q 139 816 119 785 q 190 866 158 847 q 271 885 223 885 q 336 874 307 885 q 385 843 365 863 q 415 794 404 822 q 425 733 425 766 q 409 652 425 687 q 367 587 394 617 q 311 530 341 558 q 244 467 280 502 q 308 328 267 402 q 396 184 349 254 q 413 233 406 206 q 419 292 419 260 q 413 344 419 322 q 401 381 407 366 q 388 406 394 396 q 383 420 383 415 q 389 431 383 428 q 404 433 396 433 q 420 431 409 433 q 444 425 431 430 q 473 411 458 420 q 500 387 488 402 q 519 349 512 372 q 527 297 527 327 q 504 208 527 256 q 443 115 482 160 q 524 15 484 61 q 602 -63 565 -30 m 198 55 q 268 69 230 55 q 334 118 307 82 q 303 156 322 133 q 267 205 284 179 q 202 306 229 258 q 160 391 174 354 q 152 382 156 386 q 145 373 148 378 q 92 302 107 344 q 78 220 78 261 q 86 156 78 186 q 110 103 94 126 q 147 68 125 81 q 198 55 170 55 m 188 696 q 196 618 188 659 q 218 533 204 577 q 259 576 240 552 q 294 625 279 600 q 318 677 309 651 q 326 728 326 704 q 321 766 326 752 q 306 792 316 780 q 282 808 297 803 q 257 813 267 813 q 236 806 247 813 q 213 786 224 799 q 195 753 202 773 q 188 696 188 732 "},"I":{"x_min":-12.890625,"x_max":398.109375,"ha":389,"o":"m 398 940 q 397 920 398 935 q 395 883 396 904 q 393 839 394 862 q 391 796 392 816 q 389 766 391 791 q 386 703 388 741 q 381 617 384 666 q 376 518 379 569 q 370 417 373 467 q 365 324 368 366 q 361 250 363 282 q 358 205 359 219 q 346 142 356 179 q 315 65 336 105 q 259 -12 294 25 q 172 -81 225 -51 q 164 -85 168 -83 q 156 -86 160 -86 q 147 -79 147 -86 q 155 -65 147 -73 q 194 -14 179 -40 q 219 42 210 11 q 233 113 229 73 q 242 208 238 153 q 250 328 246 256 q 260 481 255 389 q 271 701 265 573 q 273 735 272 717 q 275 770 274 754 q 276 800 276 787 q 277 818 277 813 q 269 826 277 826 q 241 820 259 826 q 202 808 223 815 q 164 786 181 800 q 133 755 147 773 q 110 715 120 738 q 99 660 99 693 q 107 602 99 628 q 123 555 115 575 q 141 516 131 535 q 161 485 150 497 q 180 464 172 472 q 188 451 188 455 q 181 441 188 445 q 158 437 174 437 q 91 453 122 437 q 37 495 60 468 q 0 557 14 522 q -12 631 -12 592 q 3 731 -12 682 q 51 817 20 779 q 124 883 82 854 q 208 929 166 912 q 291 957 250 946 q 366 968 332 968 q 390 962 383 968 q 398 940 398 955 "},"G":{"x_min":-76.640625,"x_max":657.875,"ha":671,"o":"m 657 723 q 648 652 657 687 q 619 575 639 616 q 575 519 601 543 q 522 479 549 495 q 469 455 495 463 q 426 447 444 447 q 398 454 411 447 q 385 472 385 461 q 389 481 385 477 q 403 490 393 484 q 435 509 414 495 q 478 549 457 523 q 516 613 499 575 q 532 704 532 651 q 514 753 528 722 q 476 803 500 783 q 421 833 451 823 q 360 843 390 843 q 279 823 318 843 q 211 774 240 804 q 150 694 183 744 q 96 598 118 644 q 63 481 75 552 q 52 334 52 411 q 71 187 52 247 q 118 96 90 127 q 188 53 146 66 q 267 40 231 40 q 328 52 299 40 q 381 84 358 64 q 421 131 404 105 q 446 187 438 158 q 450 209 448 195 q 454 240 452 223 q 460 303 457 257 q 464 355 464 349 q 467 370 465 360 q 473 385 470 381 q 481 390 476 387 q 493 394 486 392 q 512 396 501 396 q 517 396 515 396 q 522 396 520 396 q 525 398 524 396 q 529 402 527 400 q 533 410 531 405 q 539 418 535 414 q 549 425 543 422 q 561 431 555 429 q 573 434 567 434 q 583 431 579 434 q 587 420 587 427 q 587 416 587 418 q 585 410 586 413 q 577 330 583 394 q 566 225 571 267 q 558 139 562 183 q 554 59 555 95 q 550 -5 554 33 q 526 -84 546 -44 q 473 -163 507 -124 q 387 -231 439 -202 q 373 -236 379 -236 q 354 -223 354 -231 q 356 -216 354 -219 q 361 -209 358 -213 q 398 -159 383 -183 q 422 -104 413 -134 q 436 -57 432 -74 q 445 21 440 -41 l 445 30 q 395 -32 421 -12 q 341 -62 368 -52 q 279 -77 314 -71 q 207 -84 244 -84 q 99 -60 150 -84 q 8 12 48 -36 q -53 135 -30 61 q -76 310 -76 209 q -60 468 -76 389 q -12 620 -43 548 q 63 754 18 692 q 162 862 107 816 q 281 933 217 907 q 419 959 346 959 q 518 941 474 959 q 593 891 562 923 q 641 816 624 859 q 657 723 657 773 "},"(":{"x_min":-39.34375,"x_max":293.671875,"ha":239,"o":"m 194 1024 q 206 1020 201 1024 q 215 1010 211 1015 q 224 999 219 1005 q 234 990 228 993 q 246 987 241 986 q 257 984 250 987 q 265 979 261 982 q 272 975 269 976 q 288 967 284 971 q 293 959 293 963 q 283 940 293 954 q 261 912 273 927 q 237 884 248 897 q 223 868 226 871 q 182 813 206 846 q 133 731 157 780 q 93 613 110 681 q 77 454 77 545 q 90 305 77 376 q 123 172 103 234 q 167 58 143 110 q 216 -33 192 6 q 258 -100 239 -73 q 287 -138 278 -126 q 292 -146 291 -143 q 293 -153 293 -149 q 280 -166 293 -166 q 265 -161 272 -166 q 233 -135 258 -157 q 174 -75 208 -113 q 102 18 140 -36 q 33 146 65 73 q -18 306 2 218 q -39 499 -39 394 q -18 685 -39 604 q 33 826 2 765 q 99 930 64 887 q 161 1005 134 973 q 194 1024 178 1024 "},"`":{"x_min":93.59375,"x_max":245.515625,"ha":339,"o":"m 242 536 q 245 526 245 531 q 243 518 245 521 q 236 514 240 514 q 229 516 233 514 q 171 549 196 531 q 128 585 145 567 q 102 618 111 602 q 93 642 93 633 q 99 658 93 652 q 126 678 105 664 q 133 682 130 681 q 139 686 136 682 q 147 694 143 690 q 154 698 150 698 q 167 685 164 698 q 186 630 174 655 q 209 585 198 604 q 230 553 221 566 q 242 536 239 541 "},"U":{"x_min":-23.0625,"x_max":947.296875,"ha":903,"o":"m 828 101 q 833 61 828 78 q 846 35 838 45 q 863 21 853 25 q 883 17 873 17 q 904 22 894 17 q 921 31 913 26 q 931 36 929 36 q 937 37 933 37 q 946 27 949 36 q 942 14 946 21 q 926 -7 933 3 q 902 -30 918 -17 q 867 -53 887 -44 q 825 -62 848 -62 q 772 -46 793 -62 q 739 -5 752 -29 q 721 41 727 19 q 717 75 716 63 l 718 86 q 679 22 699 48 q 635 -22 659 -2 q 588 -54 610 -42 q 546 -73 566 -67 q 512 -81 527 -80 q 488 -82 497 -82 q 401 -64 442 -82 q 327 -8 359 -45 q 276 85 295 29 q 257 216 257 141 q 266 333 257 271 q 287 460 276 394 q 306 582 298 525 q 314 709 314 640 q 308 777 314 752 q 289 821 303 801 q 259 850 276 841 q 223 859 242 859 q 177 847 200 859 q 133 811 154 835 q 103 756 113 787 q 92 674 92 726 q 106 598 98 624 q 130 545 115 571 q 159 504 145 519 q 178 487 173 490 q 184 481 181 484 q 187 475 187 478 q 166 466 187 466 q 143 469 160 466 q 105 480 126 472 q 61 503 84 489 q 20 542 38 518 q -10 601 1 567 q -23 684 -23 636 q -1 790 -23 739 q 56 879 20 841 q 140 941 92 918 q 240 964 187 964 q 315 951 278 964 q 379 909 351 937 q 424 835 407 881 q 440 726 440 790 q 432 601 440 663 q 414 478 424 539 q 396 357 404 417 q 387 235 387 296 q 399 140 387 170 q 427 92 410 109 q 468 65 444 75 q 519 54 492 54 q 592 71 560 54 q 650 115 625 87 q 692 180 674 143 q 722 259 710 217 q 727 294 723 265 q 736 349 731 324 q 747 430 741 375 q 759 542 753 485 q 772 654 766 599 q 785 752 779 709 q 795 824 790 796 q 802 857 799 853 q 811 864 803 859 q 841 869 819 869 q 846 869 843 869 q 851 868 849 868 q 858 874 855 868 q 868 887 862 880 q 881 900 873 894 q 902 906 889 906 q 912 903 908 906 q 916 893 916 900 l 914 881 q 908 839 913 873 q 897 755 904 805 q 884 641 891 704 q 868 511 876 577 q 853 379 861 444 q 841 257 846 313 q 832 160 835 202 q 828 101 828 119 "},"F":{"x_min":-27.125,"x_max":781.984375,"ha":612,"o":"m 378 826 q 377 805 378 823 q 375 736 377 787 q 371 647 373 685 q 367 566 369 609 q 362 476 364 523 q 358 383 360 430 q 429 378 396 382 q 488 370 462 375 q 524 363 510 366 q 546 357 538 360 q 559 350 555 354 q 567 341 564 346 q 575 334 570 337 q 585 328 580 331 q 593 322 590 325 q 596 314 596 318 q 593 304 596 308 q 583 298 589 299 q 555 295 577 296 q 486 291 533 293 q 426 289 461 290 q 353 287 391 288 q 348 208 351 246 q 344 141 346 171 q 341 90 343 111 q 339 59 340 69 q 327 -3 337 33 q 304 -78 318 -40 q 255 -155 290 -116 q 168 -223 221 -193 q 147 -230 158 -228 q 128 -223 128 -231 q 136 -209 128 -218 q 175 -160 160 -184 q 201 -105 191 -136 q 216 -34 210 -75 q 224 62 221 5 q 226 108 225 78 q 229 176 227 134 q 235 284 231 219 q 166 280 188 283 q 139 275 144 277 q 135 270 135 274 q 134 264 134 267 q 131 259 133 261 q 122 257 129 257 q 110 259 118 257 q 97 264 103 261 q 86 273 90 268 q 81 284 81 278 q 95 311 81 296 q 108 323 99 315 q 134 340 117 331 q 177 359 151 349 q 240 374 202 368 l 259 746 q 257 766 256 754 q 261 791 259 778 q 275 816 264 805 q 300 828 285 827 q 325 834 314 831 q 344 845 337 838 q 359 857 352 851 q 370 862 365 862 q 375 859 373 862 q 377 850 377 855 q 378 839 378 845 q 378 826 377 834 m 775 923 q 770 911 774 916 q 760 902 765 906 q 751 892 756 897 q 746 880 747 887 q 730 854 744 864 q 697 845 716 845 q 642 847 680 845 q 556 849 604 849 q 444 845 501 849 q 333 832 387 841 q 230 809 278 823 q 151 773 183 794 q 98 725 119 752 q 77 663 77 698 q 93 577 77 615 q 127 516 109 540 q 160 474 145 491 q 174 451 174 457 q 165 440 174 445 q 139 436 156 436 q 71 452 101 436 q 18 496 40 469 q -15 559 -3 524 q -27 632 -27 594 q 0 742 -27 691 q 76 836 27 794 q 189 907 124 877 q 330 951 255 937 q 493 973 419 968 q 627 978 568 978 q 712 974 681 978 q 759 965 744 971 q 778 953 774 960 q 781 942 781 947 q 779 933 781 937 q 775 923 777 929 "},"r":{"x_min":-16.28125,"x_max":327.578125,"ha":304,"o":"m 326 236 q 294 138 310 183 q 259 61 278 93 q 219 10 241 28 q 169 -8 197 -8 q 114 26 135 -8 q 94 116 94 60 q 96 162 94 141 q 102 204 99 184 q 107 244 105 225 q 109 281 109 263 q 105 307 109 301 q 92 313 100 313 q 90 313 91 313 q 85 312 88 312 q 76 310 81 311 q 60 307 72 308 q 49 279 52 290 q 42 259 45 267 q 36 245 38 250 q 31 233 33 239 q 22 216 26 219 q 8 215 18 213 q -1 220 1 217 q -4 229 -4 223 q -2 239 -4 233 q 2 254 0 245 q 9 278 5 263 q 16 313 12 292 q -6 342 3 319 q -16 395 -16 364 q -7 446 -16 420 q 13 493 0 472 q 40 528 25 514 q 66 541 54 541 q 91 523 81 541 q 102 482 102 505 q 99 458 102 470 q 93 435 96 445 q 88 416 90 424 q 85 402 85 407 q 90 396 85 396 q 102 400 93 396 l 135 415 q 166 422 153 422 q 195 408 188 422 q 202 368 202 395 q 200 328 202 357 q 194 264 197 299 q 188 195 191 229 q 186 139 186 160 q 191 104 186 115 q 213 92 196 92 q 236 108 228 94 q 255 144 244 122 q 275 191 265 166 q 293 241 285 217 q 311 258 299 258 q 327 244 327 257 q 327 240 327 242 q 326 236 326 238 "},":":{"x_min":54.265625,"x_max":226.53125,"ha":312,"o":"m 197 80 q 198 73 198 78 q 195 63 198 67 q 184 52 192 58 q 169 41 179 48 q 150 27 160 34 q 134 14 141 20 q 126 8 127 8 q 119 3 123 6 q 110 1 115 1 q 98 8 104 1 q 89 22 94 12 q 77 42 84 31 q 66 62 71 52 q 59 76 61 72 q 55 84 57 80 q 54 90 54 87 q 61 103 54 96 l 126 165 q 131 169 128 167 q 139 171 135 171 q 148 165 145 171 q 158 148 150 160 q 173 122 165 135 q 188 96 181 108 q 197 80 196 84 m 225 386 q 226 379 226 383 q 223 368 226 373 q 212 358 220 364 q 197 347 206 354 q 178 333 187 340 q 162 320 169 326 q 153 314 155 314 q 147 309 151 311 q 138 307 143 307 q 126 314 132 307 q 117 327 122 318 q 105 348 111 337 q 94 368 99 358 q 87 382 89 378 q 83 389 85 386 q 82 396 82 393 q 88 408 82 402 l 153 471 q 159 475 155 473 q 166 477 163 477 q 176 471 172 477 q 185 454 178 466 q 201 427 193 441 q 216 402 209 414 q 225 386 223 389 "},"x":{"x_min":-4.75,"x_max":402.1875,"ha":378,"o":"m 326 384 q 266 296 291 335 q 217 226 241 257 q 236 179 225 204 q 258 134 247 153 q 273 108 268 115 q 285 96 278 100 q 302 109 293 96 q 321 143 311 122 q 341 190 330 164 q 362 244 352 217 q 391 257 369 261 q 402 244 402 257 q 400 236 402 242 q 361 134 379 179 q 326 57 343 89 q 292 8 309 25 q 255 -8 274 -8 q 227 4 241 -8 q 199 36 213 16 q 172 83 185 56 q 150 131 159 109 q 109 68 128 100 q 71 8 90 35 q 48 -8 64 -8 q 29 -1 39 -8 q 20 14 20 6 q 22 21 20 17 q 51 65 37 44 q 78 106 65 86 q 102 145 90 126 q 126 185 114 164 q 108 228 118 204 q 90 270 99 252 q 77 298 81 288 q 69 307 73 307 q 55 294 62 307 q 41 264 48 281 q 27 230 33 246 q 4 217 20 214 q -4 230 -4 217 q 0 253 -4 240 q 8 281 3 267 q 18 305 13 294 q 25 319 23 316 q 67 398 48 372 q 109 423 86 423 q 123 420 118 423 q 136 409 128 417 q 160 363 145 398 q 192 285 175 328 q 225 341 208 311 q 262 408 242 371 q 276 420 266 415 q 296 424 286 424 q 321 415 311 424 q 330 396 330 406 q 328 389 330 392 q 326 384 327 387 "},"*":{"x_min":-44.765625,"x_max":352,"ha":223,"o":"m 221 942 q 223 929 223 939 q 221 903 223 919 q 214 866 219 886 q 202 824 209 846 q 184 781 194 802 q 230 797 208 789 q 271 813 253 806 q 303 826 290 820 q 321 834 316 831 q 325 835 323 834 q 329 836 327 836 q 339 831 336 836 q 343 822 343 827 q 342 818 343 820 q 342 815 342 816 q 343 806 342 810 q 345 796 345 801 q 343 789 345 792 q 342 782 342 786 q 347 771 342 775 q 352 763 352 767 q 350 756 352 760 q 348 748 349 752 q 343 740 346 744 q 336 735 340 736 q 321 733 333 735 q 293 730 309 731 q 257 726 276 728 q 217 725 237 725 q 224 716 221 720 q 230 710 227 712 l 236 704 q 275 647 261 672 q 293 611 288 621 q 295 604 295 609 q 288 592 295 597 q 278 585 281 586 q 271 581 274 583 q 265 574 269 578 q 258 569 261 571 q 250 563 254 567 q 244 555 247 559 q 238 548 242 551 q 230 542 235 544 q 219 540 226 540 q 206 550 210 540 q 200 570 205 554 q 188 607 196 585 q 172 653 181 628 q 152 701 163 678 q 131 651 143 676 q 110 605 120 626 q 92 570 100 584 q 80 550 84 555 q 63 539 72 539 q 51 545 56 539 q 42 558 46 551 q 34 571 38 565 q 25 578 30 577 q 23 578 25 578 q 18 581 21 579 q 13 587 16 583 q 8 593 11 590 q 0 602 4 598 q -3 610 -3 606 q 5 625 -3 615 q 29 648 14 634 q 61 679 43 661 q 96 719 78 697 q 80 718 88 718 q 64 718 71 718 q 36 719 54 718 q 0 724 18 720 q -31 734 -17 728 q -44 750 -44 740 q -40 761 -44 755 q -33 775 -36 767 q -28 789 -29 781 q -25 800 -26 796 q -21 811 -24 806 q -15 822 -18 817 q -8 832 -12 830 q -2 834 -5 834 q 13 828 6 834 q 27 819 16 825 q 53 806 37 813 q 86 791 68 798 q 122 779 104 784 q 124 811 124 796 q 125 837 125 826 q 122 882 125 861 q 120 914 120 902 q 132 935 120 935 l 137 935 q 151 939 145 935 q 163 942 158 942 q 170 940 166 942 q 178 938 174 938 q 188 944 183 938 q 204 949 193 949 q 214 947 209 949 q 221 942 219 946 "},"V":{"x_min":-42.046875,"x_max":909.5,"ha":876,"o":"m 908 897 q 909 886 908 895 q 909 864 909 878 q 906 780 909 834 q 891 658 903 727 q 856 513 879 590 q 792 356 832 435 q 742 262 769 312 q 676 160 714 212 q 586 55 638 107 q 462 -42 534 4 q 396 -76 423 -67 q 347 -86 368 -86 q 320 -81 331 -86 q 302 -70 309 -77 q 292 -55 295 -63 q 288 -41 288 -48 q 292 54 288 -12 q 296 221 296 122 q 286 490 296 339 q 247 816 276 642 q 245 825 246 822 q 240 827 244 827 l 232 826 q 155 797 189 814 q 102 757 122 780 q 74 708 82 735 q 66 655 66 682 q 72 590 66 619 q 93 536 79 561 q 124 493 108 512 q 152 463 140 474 q 160 451 160 456 q 128 438 160 438 q 106 440 121 438 q 72 449 90 442 q 33 469 53 456 q -3 503 12 482 q -31 556 -20 525 q -42 632 -42 588 q -13 747 -42 691 q 62 848 14 803 q 175 925 111 893 q 312 966 240 956 q 335 968 325 968 q 359 961 351 968 q 369 938 367 954 q 402 595 394 753 q 410 314 410 436 q 409 228 410 277 q 410 162 408 179 q 412 121 413 145 q 411 85 411 96 q 414 74 411 79 q 427 69 418 69 q 480 104 453 81 q 530 153 508 127 q 577 210 552 179 q 628 290 601 241 q 684 408 655 340 q 731 550 713 476 q 747 635 739 588 q 758 727 753 674 q 763 838 763 779 q 760 898 763 874 q 758 934 758 923 q 778 968 760 968 q 786 966 781 968 q 796 962 790 965 q 813 956 806 958 q 826 954 820 954 q 837 952 832 953 q 847 948 842 951 q 855 943 852 946 q 859 934 857 939 q 864 925 862 929 q 871 915 866 920 q 882 909 876 910 q 893 907 887 908 q 903 904 898 906 q 908 897 907 902 "},"h":{"x_min":-23.734375,"x_max":415.75,"ha":392,"o":"m 404 257 q 415 245 415 257 q 413 236 415 240 q 374 129 392 175 q 339 53 356 84 q 304 6 322 22 q 262 -8 285 -8 q 215 6 232 -8 q 190 44 198 21 q 180 91 182 66 q 178 137 178 117 q 182 206 178 174 q 187 255 187 238 q 172 281 187 281 q 156 259 162 274 q 146 231 153 251 q 131 185 140 212 q 113 129 122 159 q 91 72 103 99 q 69 26 78 40 q 52 2 61 12 q 36 -11 44 -8 q 19 -14 28 -14 q 4 -12 12 -14 q -9 -2 -3 -9 q -19 15 -15 4 q -23 44 -23 26 q -21 100 -23 62 q -15 187 -18 137 q -6 293 -11 236 q 4 408 -1 350 q 14 519 9 465 q 23 616 19 573 q 39 748 31 691 q 59 838 46 806 q 68 855 63 849 q 79 866 73 861 q 91 877 84 872 q 108 893 99 883 q 135 916 126 910 q 151 923 144 923 q 164 919 157 923 q 171 902 171 914 q 169 891 171 900 q 162 858 167 883 q 149 797 156 833 q 135 717 143 761 q 123 625 128 672 q 110 518 116 572 q 100 415 105 465 q 91 321 95 365 q 85 253 87 278 q 82 209 84 229 q 80 185 80 189 q 82 174 80 174 q 88 186 82 174 q 101 219 93 198 q 116 257 109 240 q 133 302 122 275 q 157 350 145 328 q 181 388 170 373 q 210 415 195 406 q 239 424 225 424 q 278 401 265 424 q 290 341 290 377 q 288 301 290 326 q 283 250 286 277 q 279 198 281 223 q 276 155 276 172 q 277 125 276 136 q 281 106 278 113 q 289 95 285 99 q 299 92 294 92 q 317 108 310 99 q 335 137 324 117 q 356 183 345 157 q 379 242 366 210 q 387 254 383 250 q 404 257 392 257 "},"0":{"x_min":-10.859375,"x_max":679.578125,"ha":657,"o":"m 679 484 q 665 344 679 409 q 625 224 651 278 q 565 128 600 170 q 490 57 531 86 q 406 13 450 28 q 317 -2 362 -2 q 246 8 284 -2 q 172 41 209 18 q 103 97 136 63 q 44 180 69 132 q 4 289 18 227 q -10 428 -10 351 q 5 591 -10 512 q 54 739 21 670 q 140 865 88 808 q 265 963 192 923 q 272 967 270 966 q 278 967 275 967 q 288 959 288 967 q 290 938 295 943 q 275 920 286 934 q 246 882 264 906 q 205 823 227 858 q 164 737 182 788 q 127 628 145 687 q 108 484 108 568 q 125 316 108 381 q 172 203 142 252 q 242 131 202 154 q 329 107 282 107 q 375 114 349 107 q 426 143 401 121 q 474 198 451 164 q 513 267 497 231 q 540 367 529 303 q 551 516 551 432 q 536 677 551 622 q 496 773 522 731 q 444 834 470 815 q 396 851 419 853 q 370 848 382 851 q 342 831 358 845 q 317 810 325 817 q 286 792 309 802 q 265 794 271 789 q 256 812 256 794 q 269 863 256 838 q 305 907 283 888 q 353 936 326 925 q 406 948 380 948 q 463 937 433 948 q 524 903 494 926 q 583 843 555 879 q 632 755 611 806 q 666 636 653 704 q 679 484 679 569 "},".":{"x_min":40.6875,"x_max":185.15625,"ha":271,"o":"m 183 80 q 185 73 185 78 q 182 63 185 67 q 170 52 179 58 q 155 41 165 48 q 137 27 146 34 q 121 14 128 20 q 112 8 113 8 q 105 3 109 6 q 96 1 101 1 q 84 8 90 1 q 75 22 81 12 q 64 42 70 31 q 53 62 58 52 q 46 76 48 72 q 42 84 44 80 q 40 90 40 87 q 47 103 40 96 l 112 165 q 118 169 114 167 q 125 171 122 171 q 134 165 131 171 q 144 148 137 160 q 160 122 151 135 q 175 96 168 108 q 183 80 182 84 "},"@":{"x_min":67.828125,"x_max":1051.921875,"ha":1120,"o":"m 760 206 q 701 218 725 206 q 660 246 676 229 q 636 281 644 263 q 624 311 628 299 q 623 316 623 313 q 621 318 622 318 q 618 316 619 318 q 616 312 617 314 q 602 292 614 307 q 573 261 590 278 q 536 232 556 245 q 496 220 516 220 q 466 230 480 220 q 440 258 451 240 q 423 299 430 275 q 417 349 417 322 q 435 460 417 408 q 496 564 454 512 q 539 609 516 590 q 583 642 562 629 q 625 662 605 655 q 659 669 645 669 q 678 666 669 669 q 695 654 688 662 q 707 633 703 646 q 712 600 712 619 q 705 556 712 580 q 686 512 699 533 q 655 478 674 491 q 614 464 637 464 q 600 475 600 464 q 603 499 600 482 q 607 532 607 516 q 607 546 607 538 q 603 563 606 555 q 596 577 600 571 q 583 582 591 582 q 551 565 564 582 q 528 524 537 548 q 514 473 519 499 q 510 427 510 446 q 514 383 510 402 q 524 353 518 364 q 540 336 531 341 q 558 330 549 330 q 598 347 581 330 q 629 383 616 363 q 650 419 642 403 q 664 436 659 436 q 672 421 670 436 q 704 326 680 360 q 765 293 727 293 q 798 298 779 293 q 835 314 816 303 q 871 346 853 326 q 902 397 889 366 q 924 470 916 427 q 933 569 933 512 q 913 703 933 643 q 853 805 893 763 q 756 869 814 847 q 621 892 697 892 q 525 879 575 892 q 427 838 475 866 q 336 771 379 811 q 261 676 293 730 q 210 553 229 621 q 191 401 191 484 q 215 243 191 311 q 282 130 240 175 q 381 63 324 85 q 505 40 438 40 q 594 49 554 40 q 663 67 634 57 q 712 86 693 78 q 739 94 731 94 q 759 79 759 94 q 737 49 759 67 q 677 14 715 31 q 589 -14 639 -2 q 482 -27 539 -27 q 321 -5 396 -27 q 189 66 246 16 q 100 195 132 115 q 67 390 67 275 q 86 529 67 459 q 139 661 104 598 q 224 779 174 725 q 340 874 275 834 q 484 937 405 914 q 653 960 562 960 q 801 936 729 960 q 928 863 872 912 q 1018 742 984 815 q 1051 571 1051 669 q 1024 410 1051 478 q 955 296 997 341 q 861 229 912 251 q 760 206 809 206 "},"f":{"x_min":-36.625,"x_max":297.734375,"ha":269,"o":"m 290 236 q 240 117 265 166 q 189 41 215 67 q 208 -9 201 21 q 218 -69 215 -40 q 222 -122 221 -99 q 223 -148 223 -145 q 214 -261 222 -214 q 194 -341 207 -308 q 163 -396 181 -375 q 123 -433 145 -418 q 93 -450 109 -442 q 63 -458 76 -458 q 29 -447 46 -458 q -3 -416 11 -437 q -27 -365 -17 -396 q -36 -297 -36 -335 q -33 -208 -35 -260 q -26 -94 -30 -156 q -15 34 -21 -33 q -3 171 -9 103 q 10 305 3 240 q 23 428 16 371 q 35 529 29 484 q 45 600 41 573 q 68 714 56 669 q 90 788 79 759 q 113 831 102 816 q 137 853 125 845 q 161 865 149 861 q 187 877 174 870 q 220 895 206 889 q 247 902 235 902 q 265 897 256 902 q 281 882 274 893 q 293 852 288 871 q 297 803 297 833 q 289 705 297 760 q 267 592 282 650 q 231 472 252 533 q 186 354 210 411 q 138 246 162 297 q 93 155 113 196 q 80 -5 86 79 q 69 -185 74 -90 q 66 -241 67 -214 q 64 -293 64 -269 q 69 -345 62 -320 q 94 -370 76 -370 q 124 -353 111 -370 q 143 -309 137 -335 q 151 -246 149 -284 q 154 -169 154 -208 q 151 -82 154 -125 q 138 -6 147 -40 q 133 6 136 0 q 126 17 130 12 q 120 27 122 21 q 117 39 117 33 q 123 57 117 48 q 138 67 130 65 q 155 76 146 69 q 177 94 164 82 q 216 149 196 111 q 259 241 236 187 q 270 253 262 250 q 282 257 278 256 q 292 245 292 257 q 292 241 292 243 q 290 236 292 238 m 145 622 q 128 490 139 578 q 109 317 117 401 q 153 433 128 361 q 198 592 179 504 q 222 712 217 670 q 225 775 226 754 q 224 795 225 784 q 219 813 222 807 q 213 822 217 819 q 207 824 210 824 q 192 811 200 824 q 179 784 185 799 q 167 747 173 768 q 158 707 162 726 q 150 663 154 687 q 145 622 147 639 "},";":{"x_min":54.265625,"x_max":225.84375,"ha":312,"o":"m 195 69 q 198 59 198 63 q 195 43 198 51 q 189 25 192 35 q 170 -14 181 6 q 146 -55 159 -35 q 121 -92 134 -75 q 96 -119 107 -109 q 86 -125 90 -125 q 80 -117 80 -125 q 82 -107 80 -113 q 94 -71 90 -88 q 97 -39 97 -54 q 92 0 97 -18 q 80 30 87 17 q 67 51 73 44 q 60 61 61 59 q 54 75 54 69 q 60 88 54 82 q 72 100 63 91 q 93 120 82 109 q 113 138 104 130 q 125 149 122 147 q 131 154 128 153 q 138 156 133 156 q 147 149 143 156 q 157 134 149 146 q 172 109 164 122 q 187 84 180 95 q 195 69 193 72 m 224 386 q 225 379 225 383 q 222 368 225 373 q 211 358 219 364 q 196 347 206 354 q 178 333 187 340 q 161 320 168 326 q 153 314 154 314 q 146 309 150 311 q 137 307 142 307 q 125 314 131 307 q 116 327 122 318 q 105 348 111 337 q 93 368 99 358 q 86 382 88 378 q 83 389 84 386 q 81 396 81 393 q 88 408 81 402 l 153 471 q 159 475 155 473 q 166 477 162 477 q 175 471 172 477 q 185 454 177 466 q 200 427 192 441 q 216 402 208 414 q 224 386 223 389 "},"i":{"x_min":-12.203125,"x_max":260.4375,"ha":236,"o":"m 164 510 q 166 501 166 506 q 149 474 166 489 q 124 451 136 462 q 103 430 113 439 q 86 415 94 421 q 74 410 79 410 q 68 411 71 410 q 62 417 65 413 q 46 450 54 433 q 31 482 37 467 q 21 508 25 497 q 16 523 16 519 q 23 539 16 531 q 36 555 26 543 q 57 579 46 567 q 78 603 68 592 q 91 617 88 614 q 105 627 99 627 q 114 618 111 627 q 123 598 116 613 q 139 564 130 582 q 154 531 147 546 q 164 510 162 515 m 250 257 q 257 253 254 257 q 260 245 260 250 q 258 236 260 240 q 229 154 242 191 q 202 89 216 118 q 165 24 183 46 q 124 -6 147 1 q 112 -8 119 -7 q 98 -10 105 -10 q 62 -3 81 -10 q 26 22 42 3 q -1 75 9 41 q -12 164 -12 109 q -8 258 -12 213 q 1 349 -5 303 q 26 388 11 370 q 55 418 40 405 q 83 437 70 430 q 101 444 95 444 q 104 438 104 444 q 102 419 104 432 q 99 382 101 406 q 94 321 96 358 q 90 231 92 284 q 94 175 90 201 q 103 131 98 149 q 117 104 109 112 q 137 96 125 96 q 159 107 149 96 q 181 139 169 118 q 203 185 193 159 q 225 242 212 212 q 250 257 236 260 "},"6":{"x_min":-10.171875,"x_max":599.546875,"ha":576,"o":"m 599 316 q 577 185 599 245 q 517 81 556 125 q 424 12 478 37 q 306 -12 370 -12 q 183 9 241 -12 q 83 79 126 31 q 14 203 40 127 q -10 385 -10 278 q 10 533 -9 463 q 65 662 31 602 q 145 771 100 722 q 241 858 191 820 q 344 921 291 895 q 445 959 396 946 q 451 960 448 960 q 457 961 454 961 q 468 957 465 961 q 478 940 472 953 q 476 932 478 936 q 461 931 474 927 q 444 912 462 921 q 402 885 427 902 q 347 843 377 868 q 286 783 317 817 q 227 705 256 749 q 177 608 199 661 q 141 489 155 554 q 126 354 128 423 q 140 215 122 265 q 187 128 159 165 q 250 76 216 92 q 318 60 285 60 q 373 72 345 60 q 422 112 400 85 q 456 171 444 139 q 472 265 467 203 q 459 380 472 339 q 425 448 446 421 q 378 484 404 474 q 329 494 353 494 q 276 480 297 494 q 243 452 256 467 q 223 423 231 436 q 209 409 216 409 q 201 424 204 419 q 198 438 198 428 q 201 459 198 445 q 213 491 205 474 q 236 527 222 508 q 270 561 250 545 q 318 586 291 576 q 381 596 345 596 q 466 575 427 596 q 536 518 506 555 q 582 429 565 480 q 599 316 599 377 "},"A":{"x_min":40.6875,"x_max":758.25,"ha":792,"o":"m 632 99 q 637 60 632 75 q 650 34 642 44 q 667 20 657 24 q 687 15 676 15 q 706 20 697 15 q 724 29 716 24 q 738 39 731 34 q 749 43 744 43 q 758 33 758 43 q 755 24 758 29 q 749 16 752 19 q 724 -13 737 0 q 696 -39 711 -28 q 664 -57 680 -50 q 630 -64 647 -64 q 577 -49 598 -64 q 544 -11 556 -34 q 526 37 532 10 q 520 90 521 65 q 484 30 503 55 q 446 -12 465 5 q 376 -64 414 -44 q 288 -84 337 -84 q 189 -59 235 -84 q 111 14 144 -34 q 59 137 78 63 q 40 309 40 211 q 53 456 40 387 q 87 584 66 525 q 135 693 108 644 q 192 782 163 742 q 251 850 222 822 q 305 898 280 879 q 344 925 322 912 q 390 948 366 937 q 443 964 415 958 q 500 970 470 970 q 575 958 535 970 q 647 920 614 946 q 702 855 680 895 q 725 760 725 815 q 715 697 725 729 q 685 633 706 666 q 643 586 667 604 q 595 556 619 567 q 545 539 570 544 q 502 535 521 535 q 461 541 474 535 q 447 556 447 548 q 452 566 447 560 q 465 575 456 571 q 498 587 476 579 q 544 610 521 594 q 585 656 568 626 q 603 734 603 685 q 592 818 603 785 q 562 871 580 851 q 521 899 543 891 q 475 907 498 907 q 408 890 441 907 q 346 844 376 874 q 291 774 317 815 q 244 688 265 734 q 207 590 223 641 q 183 487 191 539 q 170 393 174 436 q 166 310 166 349 q 182 175 166 230 q 222 85 197 120 q 278 35 246 50 q 343 19 310 19 q 397 30 369 19 q 450 60 425 41 q 493 107 474 80 q 520 166 512 134 q 524 198 522 174 q 530 250 527 221 q 536 313 533 280 q 543 374 539 346 q 550 422 546 402 q 556 445 553 442 q 564 450 559 447 q 576 454 569 452 q 594 455 583 455 q 598 455 596 455 q 604 455 601 455 q 607 457 605 455 q 611 461 609 459 q 615 469 613 464 q 621 477 617 473 q 631 485 626 481 q 643 491 637 489 q 655 493 649 493 q 664 490 660 493 q 668 477 668 486 q 668 469 668 472 q 662 433 666 458 q 655 375 659 408 q 647 304 651 342 q 639 228 642 266 q 634 157 636 191 q 632 99 632 124 "},"n":{"x_min":-31.203125,"x_max":487.640625,"ha":444,"o":"m 477 257 q 484 253 481 257 q 487 245 487 250 q 485 235 487 240 q 446 129 464 174 q 411 52 429 83 q 374 6 393 22 q 332 -8 355 -8 q 286 4 303 -8 q 258 38 268 17 q 244 85 248 59 q 241 137 241 111 q 242 173 241 155 q 243 208 242 191 q 245 237 244 224 q 246 258 246 250 q 243 275 246 271 q 236 279 241 279 q 225 273 229 279 q 219 260 221 267 q 208 231 215 252 q 193 183 202 210 q 174 128 184 157 q 156 76 164 99 q 135 29 145 46 q 115 1 125 11 q 96 -11 105 -8 q 80 -14 87 -14 q 66 -12 73 -14 q 53 -3 59 -9 q 43 13 47 2 q 39 40 39 23 q 37 114 37 74 q 37 193 37 155 q 37 229 37 212 q 37 260 37 246 q 36 286 37 280 q 31 294 35 293 q 22 278 26 290 q 6 235 18 265 q -1 221 2 225 q -10 217 -6 217 q -24 222 -21 219 q -31 236 -27 225 q -27 250 -31 240 q -19 273 -24 261 q -9 299 -14 286 q 0 322 -4 312 q 14 354 6 337 q 33 384 23 370 q 58 406 44 398 q 88 413 73 413 q 123 392 107 413 q 139 326 138 370 q 140 259 140 290 q 141 212 141 227 q 140 184 141 198 q 139 160 140 170 q 143 169 141 160 q 153 198 146 178 q 170 243 161 218 q 190 295 180 269 q 212 345 201 321 q 236 387 224 369 q 270 417 256 406 q 301 427 284 427 q 337 398 326 427 q 347 320 347 369 q 347 290 347 308 q 345 253 346 273 q 343 214 344 233 q 343 178 343 194 q 345 133 343 150 q 350 107 347 115 q 354 98 352 99 q 361 96 356 96 q 381 109 370 97 q 402 143 392 122 q 423 190 413 164 q 445 247 433 217 q 477 257 455 261 "},"O":{"x_min":-25.765625,"x_max":726.375,"ha":718,"o":"m 726 444 q 710 291 726 362 q 667 161 694 220 q 601 56 639 102 q 519 -20 563 10 q 427 -68 476 -52 q 330 -85 379 -85 q 253 -73 294 -85 q 173 -38 213 -62 q 98 23 134 -14 q 34 113 62 61 q -9 233 6 165 q -25 385 -25 301 q -10 553 -25 470 q 37 712 4 636 q 125 851 69 788 q 253 951 181 914 q 267 955 260 955 q 281 948 278 955 q 280 931 283 939 q 271 913 278 925 q 249 870 263 902 q 207 796 236 838 q 159 704 179 754 q 121 593 138 655 q 103 441 103 532 q 122 248 103 329 q 173 123 141 167 q 249 53 206 79 q 343 28 293 28 q 393 37 366 28 q 446 69 419 47 q 499 128 473 90 q 544 207 526 166 q 574 320 562 249 q 585 482 585 390 q 577 618 585 559 q 555 715 569 678 q 524 781 541 752 q 486 831 507 811 q 446 856 465 850 q 413 863 426 863 q 347 831 379 863 q 311 735 316 799 q 320 631 310 695 q 348 503 330 567 q 393 381 366 439 q 454 284 420 323 q 459 273 459 277 q 437 262 459 262 q 393 275 419 262 q 338 311 366 287 q 283 369 310 335 q 233 449 255 404 q 196 539 211 494 q 176 661 180 583 q 201 788 180 735 q 255 878 223 841 q 335 934 286 914 q 432 950 384 953 q 498 937 460 950 q 567 899 535 924 q 627 834 598 874 q 678 738 656 794 q 713 609 700 682 q 726 444 726 536 "},"3":{"x_min":-23.0625,"x_max":549.359375,"ha":515,"o":"m 549 248 q 522 131 549 180 q 452 50 495 82 q 352 5 408 19 q 237 -9 295 -9 q 132 4 180 -9 q 50 43 84 18 q -3 103 15 68 q -23 180 -23 138 q -9 237 -23 212 q 23 280 4 262 q 62 306 42 297 q 96 316 82 316 q 111 301 111 316 q 107 288 111 296 q 100 270 104 281 q 93 245 96 260 q 90 208 90 229 q 98 165 90 185 q 123 124 107 145 q 168 88 140 103 q 240 73 197 73 q 315 86 281 73 q 372 118 349 99 q 409 165 394 137 q 424 235 424 194 q 411 322 424 286 q 378 382 398 358 q 331 422 357 407 q 278 445 305 437 q 223 459 252 453 q 178 465 195 464 q 145 472 155 466 q 136 486 136 477 q 143 503 136 496 q 160 518 149 510 q 215 561 183 534 q 269 615 247 588 q 314 676 292 642 q 354 743 337 710 q 364 766 359 754 q 374 789 369 776 q 383 817 379 803 q 360 816 372 816 q 335 816 347 816 q 319 816 333 816 q 290 817 306 817 q 260 818 274 818 q 240 819 245 819 q 186 818 209 819 q 144 817 162 817 q 113 815 126 816 q 90 815 100 815 q 39 831 39 815 q 40 841 39 836 q 42 852 42 847 q 45 866 42 860 q 51 877 48 872 q 58 888 55 883 q 61 901 61 893 l 61 904 q 85 941 61 929 q 155 953 109 953 q 192 951 171 953 q 238 947 213 949 q 290 942 263 944 q 347 940 318 940 q 465 947 421 940 q 516 953 509 953 q 535 936 535 953 q 532 918 535 929 q 522 890 530 913 q 499 832 514 866 q 460 755 483 797 q 404 669 436 712 q 351 599 373 626 q 278 518 330 572 q 292 519 284 518 q 307 519 299 519 q 393 494 358 512 q 466 442 428 476 q 527 358 505 407 q 549 248 549 309 "},"]":{"x_min":-59,"x_max":252.984375,"ha":238,"o":"m -59 863 q -56 882 -59 872 q -52 900 -53 892 q -54 905 -52 900 q -56 918 -56 910 q -55 929 -56 924 q -54 940 -54 934 q -56 956 -54 949 q -58 971 -58 963 q -55 981 -58 976 q -44 985 -52 985 q -29 982 -37 985 q -1 977 -21 980 q 46 972 19 975 q 103 967 73 969 q 159 962 132 964 q 204 959 185 960 q 228 957 223 957 q 248 947 244 957 q 252 925 252 937 q 252 887 252 914 q 252 822 252 861 q 252 735 252 784 q 252 632 252 687 q 252 481 252 560 q 252 324 252 402 q 252 177 252 247 q 252 52 252 107 q 252 -36 252 -2 q 252 -76 252 -71 q 221 -141 252 -126 q 176 -158 206 -149 q 107 -167 145 -167 q 63 -164 85 -167 q 21 -158 40 -162 q -10 -149 2 -153 q -28 -139 -24 -144 q -36 -124 -35 -132 q -37 -110 -37 -116 q -37 -104 -37 -107 q -36 -96 -37 -101 q -34 -85 -35 -91 q -40 -67 -39 -74 q -42 -55 -42 -59 q -40 -46 -42 -48 q -35 -45 -38 -45 q -18 -48 -28 -45 q 6 -54 -9 -50 q 47 -60 22 -57 q 110 -63 71 -63 q 141 -62 124 -63 q 177 -60 158 -61 l 150 826 l 143 826 q 81 827 115 826 q 18 831 48 829 q -31 837 -10 834 q -53 842 -51 840 q -57 852 -56 846 q -59 863 -59 857 "},"m":{"x_min":-4.0625,"x_max":645.671875,"ha":620,"o":"m 636 257 q 645 246 645 257 q 643 236 645 242 q 614 152 628 190 q 586 84 600 114 q 569 49 578 66 q 547 19 559 32 q 519 -2 535 6 q 483 -10 503 -10 q 457 -6 470 -10 q 433 7 444 -2 q 415 33 422 16 q 404 73 407 49 q 402 105 403 88 q 402 137 402 121 q 404 207 402 174 q 406 257 406 240 q 401 276 406 270 q 392 282 397 282 q 380 277 384 282 q 374 263 377 271 q 364 235 370 255 q 348 190 357 215 q 330 138 340 165 q 313 87 321 110 q 294 39 303 57 q 276 11 284 21 q 259 -2 267 1 q 243 -5 251 -5 q 229 -2 236 -5 q 215 6 221 0 q 204 22 208 12 q 199 48 200 33 q 198 70 198 59 q 198 93 198 82 q 199 143 198 118 q 201 190 200 168 q 202 229 202 212 q 203 257 203 247 q 201 276 203 270 q 189 282 198 281 q 180 274 185 280 q 173 261 176 269 q 162 234 170 253 q 146 188 154 215 q 128 134 137 162 q 110 83 118 106 q 90 34 99 52 q 72 6 81 16 q 55 -6 63 -3 q 40 -10 48 -10 q 25 -7 33 -10 q 11 1 18 -4 q 1 18 5 8 q -3 44 -3 29 q -4 82 -4 65 q -4 115 -4 99 q -3 165 -4 139 q -2 225 -3 190 q 2 282 -1 255 q 10 330 6 309 q 20 364 15 351 q 27 381 24 378 q 37 393 31 387 q 48 398 43 398 q 56 395 54 398 q 63 392 59 392 q 73 396 67 392 q 88 405 79 400 q 97 411 92 408 q 107 414 102 414 q 115 396 115 414 q 113 374 115 391 q 110 341 111 358 q 106 283 108 312 q 102 230 104 255 q 100 188 101 206 q 99 164 99 170 q 101 153 99 153 q 106 166 101 153 q 119 201 111 179 q 137 248 127 222 q 158 300 147 274 q 180 350 168 326 q 202 388 191 373 q 230 417 215 407 q 259 427 245 427 q 296 391 288 427 q 304 284 304 355 q 303 221 304 254 q 299 164 301 189 q 300 160 299 160 q 305 171 301 160 q 317 203 309 181 q 335 250 325 224 q 357 303 345 277 q 379 351 368 329 q 404 388 390 374 q 433 417 418 406 q 462 427 448 427 q 483 419 474 427 q 497 397 492 411 q 504 365 502 383 q 507 324 507 346 q 506 294 507 311 q 504 257 505 276 q 502 216 503 237 q 501 179 501 196 q 504 135 501 152 q 507 111 506 118 q 511 101 509 105 q 519 94 512 96 q 541 106 531 94 q 561 137 551 117 q 581 183 571 156 q 604 242 591 210 q 636 257 610 259 "},"9":{"x_min":-28.484375,"x_max":581.234375,"ha":565,"o":"m 581 567 q 560 419 581 489 q 506 289 540 349 q 426 180 472 229 q 329 93 380 131 q 226 30 279 56 q 125 -6 174 5 q 112 -8 117 -8 q 102 -5 105 -8 q 99 3 99 -2 q 101 12 99 9 q 110 19 104 16 q 145 39 117 23 q 210 85 172 55 q 290 160 248 115 q 368 268 333 206 q 426 412 403 330 q 450 595 450 493 q 433 731 450 684 q 388 816 417 779 q 324 869 359 853 q 257 885 289 885 q 202 872 229 885 q 152 833 174 860 q 115 774 130 805 q 99 678 99 742 q 107 574 99 617 q 126 499 114 530 q 155 449 139 468 q 189 419 171 430 q 224 404 206 408 q 257 400 242 400 q 301 409 282 400 q 335 431 320 419 q 359 456 349 443 q 371 474 368 468 q 377 485 375 480 q 385 489 380 489 q 393 485 389 489 q 396 469 396 480 q 392 448 396 462 q 378 416 387 434 q 354 379 369 398 q 318 345 339 360 q 267 319 296 329 q 200 309 238 309 q 119 327 160 309 q 45 381 78 344 q -7 477 12 419 q -28 616 -28 535 q -7 752 -28 689 q 52 863 13 815 q 145 937 90 910 q 267 964 200 964 q 388 942 331 964 q 489 871 446 919 q 556 748 531 824 q 581 567 581 673 "},"l":{"x_min":1.359375,"x_max":261.109375,"ha":237,"o":"m 244 259 q 258 253 255 257 q 261 245 261 250 q 259 236 261 240 q 232 163 245 196 q 208 103 220 130 q 186 57 196 76 q 165 25 175 38 q 146 5 155 12 q 126 -6 136 -2 q 102 -9 115 -9 q 69 -3 87 -9 q 36 21 52 3 q 11 72 21 40 q 1 158 1 105 q 3 206 1 172 q 7 288 4 240 q 15 396 10 336 q 25 524 19 457 q 33 614 28 565 q 44 710 38 663 q 54 796 49 757 q 64 858 60 836 q 82 895 69 882 q 113 925 96 909 q 126 938 119 931 q 139 951 132 945 q 152 962 146 957 q 165 966 159 966 q 174 956 174 966 q 171 929 174 949 q 162 866 168 910 q 147 749 155 823 q 129 560 139 676 q 124 505 127 537 q 119 438 122 474 q 114 365 116 402 q 109 296 111 328 q 106 236 107 263 q 105 192 105 208 q 111 120 105 145 q 135 94 118 94 q 161 106 148 94 q 183 138 174 118 q 203 184 193 158 q 225 242 213 211 q 233 255 229 250 q 244 259 238 259 "},"8":{"x_min":-68.5,"x_max":533.765625,"ha":458,"o":"m 533 229 q 498 121 527 166 q 423 46 468 75 q 322 1 378 16 q 207 -12 265 -12 q 96 4 147 -12 q 9 53 46 21 q -47 130 -27 85 q -68 230 -68 174 q -49 326 -68 284 q 1 402 -29 368 q 67 467 32 436 q 142 520 103 498 q 71 577 99 553 q 25 630 44 602 q -2 689 6 659 q -11 753 -11 718 q 7 848 -11 805 q 56 923 26 891 q 126 971 87 954 q 205 988 165 988 q 231 973 231 988 q 227 965 231 969 q 209 955 223 961 q 168 931 187 946 q 133 896 149 916 q 108 848 118 875 q 99 788 99 822 q 108 723 99 753 q 139 666 118 693 q 183 618 159 639 q 241 575 208 596 q 338 659 309 615 q 367 746 367 704 q 359 798 367 776 q 338 832 350 820 q 309 851 326 845 q 276 858 293 858 q 229 844 252 858 q 189 808 206 830 q 170 804 183 800 q 157 809 163 804 q 151 824 151 815 q 153 833 151 828 q 179 877 163 856 q 214 914 194 898 q 258 939 234 929 q 309 948 282 948 q 379 933 349 948 q 430 894 409 918 q 461 839 451 870 q 472 777 472 809 q 457 701 472 735 q 418 640 442 668 q 361 588 393 612 q 295 541 329 564 q 376 492 333 518 q 453 434 418 467 q 511 356 488 400 q 533 251 533 312 q 533 240 533 246 q 533 229 533 234 m 210 467 q 157 422 182 446 q 111 369 132 398 q 76 311 90 341 q 63 241 63 282 q 75 172 63 201 q 110 118 88 143 q 163 77 132 92 q 229 63 193 63 q 296 76 265 63 q 352 111 328 89 q 389 158 375 134 q 404 216 404 182 q 390 296 404 262 q 351 359 377 330 q 288 414 326 387 q 214 465 251 441 l 210 467 "},"p":{"x_min":-69.859375,"x_max":430,"ha":374,"o":"m 105 495 q 118 491 110 495 q 123 478 123 488 q 119 454 123 467 q 113 432 115 441 q 106 390 109 410 q 99 341 103 370 q 161 400 128 379 q 219 421 193 421 q 266 411 246 421 q 299 382 286 400 q 318 339 311 364 q 324 284 324 314 q 311 167 324 210 q 275 94 297 124 q 320 128 298 107 q 355 171 335 141 q 397 255 375 201 q 420 257 408 257 q 430 246 430 257 q 427 236 430 242 q 387 147 408 183 q 343 90 365 112 q 300 59 321 69 q 261 44 278 48 l 226 38 q 160 2 195 12 q 113 -7 125 -7 q 95 -4 103 -7 q 84 7 88 -2 q 76 26 80 14 q 73 45 73 37 q 89 71 73 63 q 128 80 105 80 q 151 79 137 80 q 179 77 166 77 q 194 112 186 92 q 209 161 203 133 q 220 219 216 188 q 223 282 223 250 q 190 350 223 350 q 158 337 172 350 q 131 304 143 324 q 110 259 119 284 q 94 208 101 233 q 83 161 87 183 q 79 124 80 139 l 78 123 q 76 105 77 113 q 76 90 76 97 q 74 31 75 90 q 65 -149 73 -27 q 59 -250 62 -208 q 53 -321 56 -293 q 48 -368 51 -350 q 43 -398 46 -387 q 33 -414 40 -408 q 17 -423 26 -420 q 2 -429 9 -427 q -9 -434 -5 -431 q -39 -457 -27 -450 q -56 -463 -50 -463 q -65 -458 -61 -463 q -69 -444 -69 -453 q -67 -429 -69 -438 q -61 -385 -65 -418 q -57 -351 -59 -371 q -51 -303 -54 -331 q -44 -238 -48 -275 q -34 -153 -40 -201 q -31 -119 -33 -146 q -26 -51 -29 -91 q -20 36 -23 -11 q -12 135 -16 85 q -4 233 -8 185 q 4 319 0 281 q 11 383 8 358 q 18 412 15 408 q 36 438 25 425 q 62 463 46 451 q 72 473 67 467 q 83 483 78 478 q 94 492 89 489 q 105 495 99 495 "},"4":{"x_min":-38.65625,"x_max":628.03125,"ha":553,"o":"m 571 365 q 554 354 567 362 q 520 337 541 346 q 518 235 518 293 q 518 109 518 177 q 516 88 518 100 q 510 66 515 77 q 496 46 505 55 q 471 34 487 37 q 449 25 459 31 q 431 11 439 18 q 416 -1 423 4 q 404 -6 410 -6 q 400 -3 401 -6 q 398 11 398 0 q 399 42 398 15 q 400 110 399 69 q 402 205 401 152 q 405 311 404 258 q 386 309 396 310 q 366 308 377 309 q 319 306 344 307 q 268 305 294 305 q 203 306 236 305 q 140 307 170 307 q 84 309 110 308 q 39 309 58 309 q 9 308 18 309 q -6 307 0 307 q -30 317 -21 307 q -38 339 -38 327 q -35 351 -38 345 q -19 373 -33 356 q 12 418 -6 389 q 51 485 31 446 q 90 575 72 524 q 120 688 108 626 q 131 823 131 750 q 128 891 131 867 q 125 931 125 914 q 130 957 125 950 q 141 963 135 963 q 151 962 145 963 q 162 961 156 961 q 175 957 169 961 q 186 951 181 954 q 196 945 191 948 q 207 942 201 942 l 212 942 q 251 917 240 942 q 262 848 262 893 q 254 731 262 805 q 228 615 247 668 q 187 519 208 562 q 150 451 166 476 q 113 408 134 426 q 155 402 122 405 q 227 397 188 400 q 303 392 266 394 q 369 389 341 389 q 387 389 379 389 q 406 390 396 389 q 408 475 404 429 q 413 562 411 520 q 416 634 415 604 q 418 676 417 663 q 429 739 420 702 q 460 817 439 777 q 515 895 480 857 q 604 963 550 933 q 619 968 613 968 q 628 961 628 968 q 621 947 628 954 q 578 886 597 921 q 549 819 558 851 q 537 757 539 788 q 530 672 535 726 q 522 549 524 619 q 518 385 520 479 q 565 396 552 391 q 573 394 571 394 q 581 387 581 394 q 571 365 581 381 "},"R":{"x_min":20.34375,"x_max":969.859375,"ha":857,"o":"m 328 750 q 347 774 335 765 q 375 783 360 783 q 389 779 381 783 q 398 769 398 776 q 397 759 398 763 q 395 747 396 754 q 376 646 384 697 q 361 544 368 594 q 350 445 355 493 q 343 354 345 397 q 395 350 366 354 q 456 329 423 346 q 567 367 522 342 q 640 426 612 392 q 680 506 668 461 q 692 602 692 550 q 673 717 692 669 q 619 798 653 766 q 538 845 585 830 q 436 860 491 860 q 324 849 379 860 q 224 814 268 838 q 154 750 181 790 q 127 653 127 711 q 134 596 127 623 q 152 547 142 569 q 172 509 162 524 q 189 485 183 493 q 195 477 192 481 q 198 466 198 473 q 193 457 198 461 q 177 453 189 453 q 134 464 161 453 q 82 498 107 475 q 38 557 56 521 q 20 642 20 593 q 33 714 20 676 q 71 787 46 751 q 135 855 97 823 q 225 912 174 888 q 338 951 276 937 q 476 966 401 966 q 632 939 565 966 q 744 867 699 912 q 811 762 788 822 q 833 638 833 703 q 806 500 833 559 q 734 398 778 440 q 634 326 690 355 q 522 281 579 298 q 591 201 555 250 q 668 76 628 151 q 719 -16 693 31 q 779 -105 746 -63 q 853 -178 812 -146 q 949 -223 895 -209 q 965 -230 961 -227 q 969 -237 969 -233 q 959 -246 969 -244 q 934 -248 948 -248 q 880 -245 913 -248 q 808 -231 847 -242 q 725 -195 768 -219 q 639 -128 681 -170 q 587 -62 609 -96 q 549 8 565 -27 q 518 79 532 44 q 489 147 503 114 q 456 207 474 179 q 413 257 438 236 q 373 252 392 253 q 337 250 354 250 q 336 202 336 223 q 335 166 335 181 q 335 97 335 132 q 335 31 335 62 q 334 -23 335 0 q 334 -56 334 -46 q 334 -64 334 -59 q 333 -73 334 -69 q 328 -81 331 -78 q 320 -84 325 -84 q 303 -81 311 -84 q 289 -73 296 -78 q 276 -65 282 -69 q 263 -62 269 -62 q 251 -67 256 -62 q 240 -71 246 -71 q 227 -67 231 -71 q 220 -57 222 -63 q 218 -44 218 -51 q 217 -32 217 -37 q 218 8 217 -19 q 219 70 218 35 q 221 144 220 105 q 224 216 223 182 l 226 257 q 185 271 200 263 q 170 288 170 279 q 187 313 170 300 q 231 337 203 326 q 241 439 236 388 q 250 533 246 491 q 258 607 255 576 q 264 648 262 637 q 274 699 269 678 q 285 727 279 720 q 297 738 290 733 q 310 746 302 742 q 328 750 318 750 "},"o":{"x_min":-23.0625,"x_max":408.296875,"ha":385,"o":"m 143 48 q 171 59 159 48 q 192 87 183 69 q 206 128 200 105 q 214 177 211 151 q 176 212 194 190 q 142 265 157 233 q 129 302 133 283 q 125 339 125 322 q 131 381 125 362 q 149 415 137 401 q 179 438 161 430 q 219 446 196 446 q 267 433 248 446 q 297 397 286 419 q 312 351 307 376 q 316 304 316 326 q 313 246 316 276 q 301 185 309 216 q 345 199 326 187 q 379 240 365 211 q 396 257 387 257 q 404 254 400 257 q 408 245 408 251 q 406 236 408 240 q 361 174 392 197 q 290 152 329 152 q 262 89 279 119 q 223 37 246 60 q 172 2 201 15 q 109 -10 144 -10 q 68 -4 91 -10 q 25 17 45 0 q -9 66 4 35 q -23 150 -23 98 q -7 240 -23 193 q 46 335 8 288 q 72 360 60 352 q 91 367 84 367 q 106 349 106 367 q 101 328 106 341 q 89 297 95 316 q 77 252 83 278 q 72 191 72 226 q 91 85 72 123 q 143 48 111 48 m 218 247 q 205 346 218 316 q 177 370 192 377 q 169 358 170 368 q 168 340 168 349 q 172 309 168 325 q 182 276 176 293 q 198 245 189 260 q 217 219 207 231 q 218 233 218 226 q 218 247 218 240 "},"5":{"x_min":-49.515625,"x_max":546.640625,"ha":518,"o":"m 546 309 q 519 172 546 231 q 446 72 493 113 q 337 12 399 32 q 203 -8 274 -8 q 97 4 144 -8 q 17 41 50 17 q -32 100 -14 65 q -49 180 -49 135 q -35 237 -49 212 q -3 280 -22 262 q 35 306 15 297 q 70 316 56 316 q 84 301 84 316 q 81 288 84 296 q 73 270 78 281 q 66 245 69 260 q 63 210 63 230 q 70 155 63 183 q 94 112 78 128 q 140 82 111 97 q 211 67 168 67 q 296 89 260 67 q 356 139 332 111 q 392 213 380 167 q 403 305 403 259 q 383 423 403 376 q 331 498 362 470 q 263 538 300 526 q 193 550 227 550 q 155 547 173 550 q 122 539 138 544 q 89 528 105 535 q 56 512 73 520 q 23 503 36 503 q -3 514 6 503 q -14 539 -14 524 q -12 552 -14 545 q -3 589 -9 561 q 10 654 2 617 q 26 733 18 691 q 42 810 35 774 q 54 871 49 845 q 60 901 59 896 q 68 928 63 918 q 85 944 73 938 q 114 951 96 949 q 162 953 133 953 q 209 952 185 953 q 246 951 233 951 q 301 952 277 951 q 342 953 324 952 q 373 954 360 953 q 396 954 385 954 q 433 952 421 954 q 448 944 444 949 q 452 932 452 939 q 454 918 451 925 q 455 913 455 915 q 455 909 455 911 q 452 893 455 900 q 448 878 448 886 q 450 867 448 873 q 453 854 453 860 q 431 824 453 832 q 371 809 409 816 q 322 811 344 811 q 274 814 301 812 q 210 822 246 817 q 134 832 173 826 l 86 612 q 129 627 108 621 q 174 637 150 632 q 218 644 199 642 q 274 641 238 645 q 361 618 323 635 q 433 576 400 601 q 487 517 465 550 q 522 449 510 484 q 541 377 535 413 q 546 309 546 341 "}}}
